# Station - Endless Subway, exported from the game's parts. Units: Roblox studs (x0.28 for metres).
mtllib Station.mtl
o BackDoor
usemtl c_121213
v -100.0000 1.0000 -2.5000
v -100.0000 1.0000 2.5000
v -100.0000 9.0000 -2.5000
v -100.0000 9.0000 2.5000
v -99.6000 1.0000 -2.5000
v -99.6000 1.0000 2.5000
v -99.6000 9.0000 -2.5000
v -99.6000 9.0000 2.5000
f 1 2 4 3
f 5 7 8 6
f 1 5 6 2
f 3 4 8 7
f 1 3 7 5
f 2 6 8 4
usemtl c_aa322d
v -100.1000 1.0000 -3.0000
v -100.1000 1.0000 3.0000
v -100.1000 10.0000 -3.0000
v -100.1000 10.0000 3.0000
v -99.8000 1.0000 -3.0000
v -99.8000 1.0000 3.0000
v -99.8000 10.0000 -3.0000
v -99.8000 10.0000 3.0000
f 9 10 12 11
f 13 15 16 14
f 9 13 14 10
f 11 12 16 15
f 9 11 15 13
f 10 14 16 12
usemtl c_aa322d
v -100.0000 10.0000 -4.0000
v -100.0000 10.0000 4.0000
v -100.0000 12.0000 -4.0000
v -100.0000 12.0000 4.0000
v -99.6000 10.0000 -4.0000
v -99.6000 10.0000 4.0000
v -99.6000 12.0000 -4.0000
v -99.6000 12.0000 4.0000
f 17 18 20 19
f 21 23 24 22
f 17 21 22 18
f 19 20 24 23
f 17 19 23 21
f 18 22 24 20
o BackEndWall
usemtl c_dedfe2
v -101.0000 -4.0000 -11.0000
v -101.0000 -4.0000 28.0000
v -101.0000 16.0000 -11.0000
v -101.0000 16.0000 28.0000
v -100.0000 -4.0000 -11.0000
v -100.0000 -4.0000 28.0000
v -100.0000 16.0000 -11.0000
v -100.0000 16.0000 28.0000
f 25 26 28 27
f 29 31 32 30
f 25 29 30 26
f 27 28 32 31
f 25 27 31 29
f 26 30 32 28
o ContinueDoor
usemtl c_121213
v 99.6000 1.0000 -2.5000
v 99.6000 1.0000 2.5000
v 99.6000 9.0000 -2.5000
v 99.6000 9.0000 2.5000
v 100.0000 1.0000 -2.5000
v 100.0000 1.0000 2.5000
v 100.0000 9.0000 -2.5000
v 100.0000 9.0000 2.5000
f 33 34 36 35
f 37 39 40 38
f 33 37 38 34
f 35 36 40 39
f 33 35 39 37
f 34 38 40 36
usemtl c_288b4f
v 99.8000 1.0000 -3.0000
v 99.8000 1.0000 3.0000
v 99.8000 10.0000 -3.0000
v 99.8000 10.0000 3.0000
v 100.1000 1.0000 -3.0000
v 100.1000 1.0000 3.0000
v 100.1000 10.0000 -3.0000
v 100.1000 10.0000 3.0000
f 41 42 44 43
f 45 47 48 46
f 41 45 46 42
f 43 44 48 47
f 41 43 47 45
f 42 46 48 44
usemtl c_288b4f
v 99.6000 10.0000 -4.0000
v 99.6000 10.0000 4.0000
v 99.6000 12.0000 -4.0000
v 99.6000 12.0000 4.0000
v 100.0000 10.0000 -4.0000
v 100.0000 10.0000 4.0000
v 100.0000 12.0000 -4.0000
v 100.0000 12.0000 4.0000
f 49 50 52 51
f 53 55 56 54
f 49 53 54 50
f 51 52 56 55
f 49 51 55 53
f 50 54 56 52
o ContinueEndWall
usemtl c_dedfe2
v 100.0000 -4.0000 -11.0000
v 100.0000 -4.0000 28.0000
v 100.0000 16.0000 -11.0000
v 100.0000 16.0000 28.0000
v 101.0000 -4.0000 -11.0000
v 101.0000 -4.0000 28.0000
v 101.0000 16.0000 -11.0000
v 101.0000 16.0000 28.0000
f 57 58 60 59
f 61 63 64 62
f 57 61 62 58
f 59 60 64 63
f 57 59 63 61
f 58 62 64 60
o Shell
usemtl c_d5d5d1
v -100.0000 -4.0000 -10.0000
v -100.0000 -4.0000 10.0000
v -100.0000 1.0000 -10.0000
v -100.0000 1.0000 10.0000
v 100.0000 -4.0000 -10.0000
v 100.0000 -4.0000 10.0000
v 100.0000 1.0000 -10.0000
v 100.0000 1.0000 10.0000
f 65 66 68 67
f 69 71 72 70
f 65 69 70 66
f 67 68 72 71
f 65 67 71 69
f 66 70 72 68
usemtl c_ebb913
v -100.0000 1.0000 8.2000
v -100.0000 1.0000 9.8000
v -100.0000 1.0600 8.2000
v -100.0000 1.0600 9.8000
v 100.0000 1.0000 8.2000
v 100.0000 1.0000 9.8000
v 100.0000 1.0600 8.2000
v 100.0000 1.0600 9.8000
f 73 74 76 75
f 77 79 80 78
f 73 77 78 74
f 75 76 80 79
f 73 75 79 77
f 74 78 80 76
usemtl c_232325
v -99.2500 1.0000 8.2000
v -99.2500 1.0000 9.8000
v -99.2500 1.0800 8.2000
v -99.2500 1.0800 9.8000
v -98.7500 1.0000 8.2000
v -98.7500 1.0000 9.8000
v -98.7500 1.0800 8.2000
v -98.7500 1.0800 9.8000
f 81 82 84 83
f 85 87 88 86
f 81 85 86 82
f 83 84 88 87
f 81 83 87 85
f 82 86 88 84
usemtl c_232325
v -96.7500 1.0000 8.2000
v -96.7500 1.0000 9.8000
v -96.7500 1.0800 8.2000
v -96.7500 1.0800 9.8000
v -96.2500 1.0000 8.2000
v -96.2500 1.0000 9.8000
v -96.2500 1.0800 8.2000
v -96.2500 1.0800 9.8000
f 89 90 92 91
f 93 95 96 94
f 89 93 94 90
f 91 92 96 95
f 89 91 95 93
f 90 94 96 92
usemtl c_232325
v -94.2500 1.0000 8.2000
v -94.2500 1.0000 9.8000
v -94.2500 1.0800 8.2000
v -94.2500 1.0800 9.8000
v -93.7500 1.0000 8.2000
v -93.7500 1.0000 9.8000
v -93.7500 1.0800 8.2000
v -93.7500 1.0800 9.8000
f 97 98 100 99
f 101 103 104 102
f 97 101 102 98
f 99 100 104 103
f 97 99 103 101
f 98 102 104 100
usemtl c_232325
v -91.7500 1.0000 8.2000
v -91.7500 1.0000 9.8000
v -91.7500 1.0800 8.2000
v -91.7500 1.0800 9.8000
v -91.2500 1.0000 8.2000
v -91.2500 1.0000 9.8000
v -91.2500 1.0800 8.2000
v -91.2500 1.0800 9.8000
f 105 106 108 107
f 109 111 112 110
f 105 109 110 106
f 107 108 112 111
f 105 107 111 109
f 106 110 112 108
usemtl c_232325
v -89.2500 1.0000 8.2000
v -89.2500 1.0000 9.8000
v -89.2500 1.0800 8.2000
v -89.2500 1.0800 9.8000
v -88.7500 1.0000 8.2000
v -88.7500 1.0000 9.8000
v -88.7500 1.0800 8.2000
v -88.7500 1.0800 9.8000
f 113 114 116 115
f 117 119 120 118
f 113 117 118 114
f 115 116 120 119
f 113 115 119 117
f 114 118 120 116
usemtl c_232325
v -86.7500 1.0000 8.2000
v -86.7500 1.0000 9.8000
v -86.7500 1.0800 8.2000
v -86.7500 1.0800 9.8000
v -86.2500 1.0000 8.2000
v -86.2500 1.0000 9.8000
v -86.2500 1.0800 8.2000
v -86.2500 1.0800 9.8000
f 121 122 124 123
f 125 127 128 126
f 121 125 126 122
f 123 124 128 127
f 121 123 127 125
f 122 126 128 124
usemtl c_232325
v -84.2500 1.0000 8.2000
v -84.2500 1.0000 9.8000
v -84.2500 1.0800 8.2000
v -84.2500 1.0800 9.8000
v -83.7500 1.0000 8.2000
v -83.7500 1.0000 9.8000
v -83.7500 1.0800 8.2000
v -83.7500 1.0800 9.8000
f 129 130 132 131
f 133 135 136 134
f 129 133 134 130
f 131 132 136 135
f 129 131 135 133
f 130 134 136 132
usemtl c_232325
v -81.7500 1.0000 8.2000
v -81.7500 1.0000 9.8000
v -81.7500 1.0800 8.2000
v -81.7500 1.0800 9.8000
v -81.2500 1.0000 8.2000
v -81.2500 1.0000 9.8000
v -81.2500 1.0800 8.2000
v -81.2500 1.0800 9.8000
f 137 138 140 139
f 141 143 144 142
f 137 141 142 138
f 139 140 144 143
f 137 139 143 141
f 138 142 144 140
usemtl c_232325
v -79.2500 1.0000 8.2000
v -79.2500 1.0000 9.8000
v -79.2500 1.0800 8.2000
v -79.2500 1.0800 9.8000
v -78.7500 1.0000 8.2000
v -78.7500 1.0000 9.8000
v -78.7500 1.0800 8.2000
v -78.7500 1.0800 9.8000
f 145 146 148 147
f 149 151 152 150
f 145 149 150 146
f 147 148 152 151
f 145 147 151 149
f 146 150 152 148
usemtl c_232325
v -76.7500 1.0000 8.2000
v -76.7500 1.0000 9.8000
v -76.7500 1.0800 8.2000
v -76.7500 1.0800 9.8000
v -76.2500 1.0000 8.2000
v -76.2500 1.0000 9.8000
v -76.2500 1.0800 8.2000
v -76.2500 1.0800 9.8000
f 153 154 156 155
f 157 159 160 158
f 153 157 158 154
f 155 156 160 159
f 153 155 159 157
f 154 158 160 156
usemtl c_232325
v -74.2500 1.0000 8.2000
v -74.2500 1.0000 9.8000
v -74.2500 1.0800 8.2000
v -74.2500 1.0800 9.8000
v -73.7500 1.0000 8.2000
v -73.7500 1.0000 9.8000
v -73.7500 1.0800 8.2000
v -73.7500 1.0800 9.8000
f 161 162 164 163
f 165 167 168 166
f 161 165 166 162
f 163 164 168 167
f 161 163 167 165
f 162 166 168 164
usemtl c_232325
v -71.7500 1.0000 8.2000
v -71.7500 1.0000 9.8000
v -71.7500 1.0800 8.2000
v -71.7500 1.0800 9.8000
v -71.2500 1.0000 8.2000
v -71.2500 1.0000 9.8000
v -71.2500 1.0800 8.2000
v -71.2500 1.0800 9.8000
f 169 170 172 171
f 173 175 176 174
f 169 173 174 170
f 171 172 176 175
f 169 171 175 173
f 170 174 176 172
usemtl c_232325
v -69.2500 1.0000 8.2000
v -69.2500 1.0000 9.8000
v -69.2500 1.0800 8.2000
v -69.2500 1.0800 9.8000
v -68.7500 1.0000 8.2000
v -68.7500 1.0000 9.8000
v -68.7500 1.0800 8.2000
v -68.7500 1.0800 9.8000
f 177 178 180 179
f 181 183 184 182
f 177 181 182 178
f 179 180 184 183
f 177 179 183 181
f 178 182 184 180
usemtl c_232325
v -66.7500 1.0000 8.2000
v -66.7500 1.0000 9.8000
v -66.7500 1.0800 8.2000
v -66.7500 1.0800 9.8000
v -66.2500 1.0000 8.2000
v -66.2500 1.0000 9.8000
v -66.2500 1.0800 8.2000
v -66.2500 1.0800 9.8000
f 185 186 188 187
f 189 191 192 190
f 185 189 190 186
f 187 188 192 191
f 185 187 191 189
f 186 190 192 188
usemtl c_232325
v -64.2500 1.0000 8.2000
v -64.2500 1.0000 9.8000
v -64.2500 1.0800 8.2000
v -64.2500 1.0800 9.8000
v -63.7500 1.0000 8.2000
v -63.7500 1.0000 9.8000
v -63.7500 1.0800 8.2000
v -63.7500 1.0800 9.8000
f 193 194 196 195
f 197 199 200 198
f 193 197 198 194
f 195 196 200 199
f 193 195 199 197
f 194 198 200 196
usemtl c_232325
v -61.7500 1.0000 8.2000
v -61.7500 1.0000 9.8000
v -61.7500 1.0800 8.2000
v -61.7500 1.0800 9.8000
v -61.2500 1.0000 8.2000
v -61.2500 1.0000 9.8000
v -61.2500 1.0800 8.2000
v -61.2500 1.0800 9.8000
f 201 202 204 203
f 205 207 208 206
f 201 205 206 202
f 203 204 208 207
f 201 203 207 205
f 202 206 208 204
usemtl c_232325
v -59.2500 1.0000 8.2000
v -59.2500 1.0000 9.8000
v -59.2500 1.0800 8.2000
v -59.2500 1.0800 9.8000
v -58.7500 1.0000 8.2000
v -58.7500 1.0000 9.8000
v -58.7500 1.0800 8.2000
v -58.7500 1.0800 9.8000
f 209 210 212 211
f 213 215 216 214
f 209 213 214 210
f 211 212 216 215
f 209 211 215 213
f 210 214 216 212
usemtl c_232325
v -56.7500 1.0000 8.2000
v -56.7500 1.0000 9.8000
v -56.7500 1.0800 8.2000
v -56.7500 1.0800 9.8000
v -56.2500 1.0000 8.2000
v -56.2500 1.0000 9.8000
v -56.2500 1.0800 8.2000
v -56.2500 1.0800 9.8000
f 217 218 220 219
f 221 223 224 222
f 217 221 222 218
f 219 220 224 223
f 217 219 223 221
f 218 222 224 220
usemtl c_232325
v -54.2500 1.0000 8.2000
v -54.2500 1.0000 9.8000
v -54.2500 1.0800 8.2000
v -54.2500 1.0800 9.8000
v -53.7500 1.0000 8.2000
v -53.7500 1.0000 9.8000
v -53.7500 1.0800 8.2000
v -53.7500 1.0800 9.8000
f 225 226 228 227
f 229 231 232 230
f 225 229 230 226
f 227 228 232 231
f 225 227 231 229
f 226 230 232 228
usemtl c_232325
v -51.7500 1.0000 8.2000
v -51.7500 1.0000 9.8000
v -51.7500 1.0800 8.2000
v -51.7500 1.0800 9.8000
v -51.2500 1.0000 8.2000
v -51.2500 1.0000 9.8000
v -51.2500 1.0800 8.2000
v -51.2500 1.0800 9.8000
f 233 234 236 235
f 237 239 240 238
f 233 237 238 234
f 235 236 240 239
f 233 235 239 237
f 234 238 240 236
usemtl c_232325
v -49.2500 1.0000 8.2000
v -49.2500 1.0000 9.8000
v -49.2500 1.0800 8.2000
v -49.2500 1.0800 9.8000
v -48.7500 1.0000 8.2000
v -48.7500 1.0000 9.8000
v -48.7500 1.0800 8.2000
v -48.7500 1.0800 9.8000
f 241 242 244 243
f 245 247 248 246
f 241 245 246 242
f 243 244 248 247
f 241 243 247 245
f 242 246 248 244
usemtl c_232325
v -46.7500 1.0000 8.2000
v -46.7500 1.0000 9.8000
v -46.7500 1.0800 8.2000
v -46.7500 1.0800 9.8000
v -46.2500 1.0000 8.2000
v -46.2500 1.0000 9.8000
v -46.2500 1.0800 8.2000
v -46.2500 1.0800 9.8000
f 249 250 252 251
f 253 255 256 254
f 249 253 254 250
f 251 252 256 255
f 249 251 255 253
f 250 254 256 252
usemtl c_232325
v -44.2500 1.0000 8.2000
v -44.2500 1.0000 9.8000
v -44.2500 1.0800 8.2000
v -44.2500 1.0800 9.8000
v -43.7500 1.0000 8.2000
v -43.7500 1.0000 9.8000
v -43.7500 1.0800 8.2000
v -43.7500 1.0800 9.8000
f 257 258 260 259
f 261 263 264 262
f 257 261 262 258
f 259 260 264 263
f 257 259 263 261
f 258 262 264 260
usemtl c_232325
v -41.7500 1.0000 8.2000
v -41.7500 1.0000 9.8000
v -41.7500 1.0800 8.2000
v -41.7500 1.0800 9.8000
v -41.2500 1.0000 8.2000
v -41.2500 1.0000 9.8000
v -41.2500 1.0800 8.2000
v -41.2500 1.0800 9.8000
f 265 266 268 267
f 269 271 272 270
f 265 269 270 266
f 267 268 272 271
f 265 267 271 269
f 266 270 272 268
usemtl c_232325
v -39.2500 1.0000 8.2000
v -39.2500 1.0000 9.8000
v -39.2500 1.0800 8.2000
v -39.2500 1.0800 9.8000
v -38.7500 1.0000 8.2000
v -38.7500 1.0000 9.8000
v -38.7500 1.0800 8.2000
v -38.7500 1.0800 9.8000
f 273 274 276 275
f 277 279 280 278
f 273 277 278 274
f 275 276 280 279
f 273 275 279 277
f 274 278 280 276
usemtl c_232325
v -36.7500 1.0000 8.2000
v -36.7500 1.0000 9.8000
v -36.7500 1.0800 8.2000
v -36.7500 1.0800 9.8000
v -36.2500 1.0000 8.2000
v -36.2500 1.0000 9.8000
v -36.2500 1.0800 8.2000
v -36.2500 1.0800 9.8000
f 281 282 284 283
f 285 287 288 286
f 281 285 286 282
f 283 284 288 287
f 281 283 287 285
f 282 286 288 284
usemtl c_232325
v -34.2500 1.0000 8.2000
v -34.2500 1.0000 9.8000
v -34.2500 1.0800 8.2000
v -34.2500 1.0800 9.8000
v -33.7500 1.0000 8.2000
v -33.7500 1.0000 9.8000
v -33.7500 1.0800 8.2000
v -33.7500 1.0800 9.8000
f 289 290 292 291
f 293 295 296 294
f 289 293 294 290
f 291 292 296 295
f 289 291 295 293
f 290 294 296 292
usemtl c_232325
v -31.7500 1.0000 8.2000
v -31.7500 1.0000 9.8000
v -31.7500 1.0800 8.2000
v -31.7500 1.0800 9.8000
v -31.2500 1.0000 8.2000
v -31.2500 1.0000 9.8000
v -31.2500 1.0800 8.2000
v -31.2500 1.0800 9.8000
f 297 298 300 299
f 301 303 304 302
f 297 301 302 298
f 299 300 304 303
f 297 299 303 301
f 298 302 304 300
usemtl c_232325
v -29.2500 1.0000 8.2000
v -29.2500 1.0000 9.8000
v -29.2500 1.0800 8.2000
v -29.2500 1.0800 9.8000
v -28.7500 1.0000 8.2000
v -28.7500 1.0000 9.8000
v -28.7500 1.0800 8.2000
v -28.7500 1.0800 9.8000
f 305 306 308 307
f 309 311 312 310
f 305 309 310 306
f 307 308 312 311
f 305 307 311 309
f 306 310 312 308
usemtl c_232325
v -26.7500 1.0000 8.2000
v -26.7500 1.0000 9.8000
v -26.7500 1.0800 8.2000
v -26.7500 1.0800 9.8000
v -26.2500 1.0000 8.2000
v -26.2500 1.0000 9.8000
v -26.2500 1.0800 8.2000
v -26.2500 1.0800 9.8000
f 313 314 316 315
f 317 319 320 318
f 313 317 318 314
f 315 316 320 319
f 313 315 319 317
f 314 318 320 316
usemtl c_232325
v -24.2500 1.0000 8.2000
v -24.2500 1.0000 9.8000
v -24.2500 1.0800 8.2000
v -24.2500 1.0800 9.8000
v -23.7500 1.0000 8.2000
v -23.7500 1.0000 9.8000
v -23.7500 1.0800 8.2000
v -23.7500 1.0800 9.8000
f 321 322 324 323
f 325 327 328 326
f 321 325 326 322
f 323 324 328 327
f 321 323 327 325
f 322 326 328 324
usemtl c_232325
v -21.7500 1.0000 8.2000
v -21.7500 1.0000 9.8000
v -21.7500 1.0800 8.2000
v -21.7500 1.0800 9.8000
v -21.2500 1.0000 8.2000
v -21.2500 1.0000 9.8000
v -21.2500 1.0800 8.2000
v -21.2500 1.0800 9.8000
f 329 330 332 331
f 333 335 336 334
f 329 333 334 330
f 331 332 336 335
f 329 331 335 333
f 330 334 336 332
usemtl c_232325
v -19.2500 1.0000 8.2000
v -19.2500 1.0000 9.8000
v -19.2500 1.0800 8.2000
v -19.2500 1.0800 9.8000
v -18.7500 1.0000 8.2000
v -18.7500 1.0000 9.8000
v -18.7500 1.0800 8.2000
v -18.7500 1.0800 9.8000
f 337 338 340 339
f 341 343 344 342
f 337 341 342 338
f 339 340 344 343
f 337 339 343 341
f 338 342 344 340
usemtl c_232325
v -16.7500 1.0000 8.2000
v -16.7500 1.0000 9.8000
v -16.7500 1.0800 8.2000
v -16.7500 1.0800 9.8000
v -16.2500 1.0000 8.2000
v -16.2500 1.0000 9.8000
v -16.2500 1.0800 8.2000
v -16.2500 1.0800 9.8000
f 345 346 348 347
f 349 351 352 350
f 345 349 350 346
f 347 348 352 351
f 345 347 351 349
f 346 350 352 348
usemtl c_232325
v -14.2500 1.0000 8.2000
v -14.2500 1.0000 9.8000
v -14.2500 1.0800 8.2000
v -14.2500 1.0800 9.8000
v -13.7500 1.0000 8.2000
v -13.7500 1.0000 9.8000
v -13.7500 1.0800 8.2000
v -13.7500 1.0800 9.8000
f 353 354 356 355
f 357 359 360 358
f 353 357 358 354
f 355 356 360 359
f 353 355 359 357
f 354 358 360 356
usemtl c_232325
v -11.7500 1.0000 8.2000
v -11.7500 1.0000 9.8000
v -11.7500 1.0800 8.2000
v -11.7500 1.0800 9.8000
v -11.2500 1.0000 8.2000
v -11.2500 1.0000 9.8000
v -11.2500 1.0800 8.2000
v -11.2500 1.0800 9.8000
f 361 362 364 363
f 365 367 368 366
f 361 365 366 362
f 363 364 368 367
f 361 363 367 365
f 362 366 368 364
usemtl c_232325
v -9.2500 1.0000 8.2000
v -9.2500 1.0000 9.8000
v -9.2500 1.0800 8.2000
v -9.2500 1.0800 9.8000
v -8.7500 1.0000 8.2000
v -8.7500 1.0000 9.8000
v -8.7500 1.0800 8.2000
v -8.7500 1.0800 9.8000
f 369 370 372 371
f 373 375 376 374
f 369 373 374 370
f 371 372 376 375
f 369 371 375 373
f 370 374 376 372
usemtl c_232325
v -6.7500 1.0000 8.2000
v -6.7500 1.0000 9.8000
v -6.7500 1.0800 8.2000
v -6.7500 1.0800 9.8000
v -6.2500 1.0000 8.2000
v -6.2500 1.0000 9.8000
v -6.2500 1.0800 8.2000
v -6.2500 1.0800 9.8000
f 377 378 380 379
f 381 383 384 382
f 377 381 382 378
f 379 380 384 383
f 377 379 383 381
f 378 382 384 380
usemtl c_232325
v -4.2500 1.0000 8.2000
v -4.2500 1.0000 9.8000
v -4.2500 1.0800 8.2000
v -4.2500 1.0800 9.8000
v -3.7500 1.0000 8.2000
v -3.7500 1.0000 9.8000
v -3.7500 1.0800 8.2000
v -3.7500 1.0800 9.8000
f 385 386 388 387
f 389 391 392 390
f 385 389 390 386
f 387 388 392 391
f 385 387 391 389
f 386 390 392 388
usemtl c_232325
v -1.7500 1.0000 8.2000
v -1.7500 1.0000 9.8000
v -1.7500 1.0800 8.2000
v -1.7500 1.0800 9.8000
v -1.2500 1.0000 8.2000
v -1.2500 1.0000 9.8000
v -1.2500 1.0800 8.2000
v -1.2500 1.0800 9.8000
f 393 394 396 395
f 397 399 400 398
f 393 397 398 394
f 395 396 400 399
f 393 395 399 397
f 394 398 400 396
usemtl c_232325
v 0.7500 1.0000 8.2000
v 0.7500 1.0000 9.8000
v 0.7500 1.0800 8.2000
v 0.7500 1.0800 9.8000
v 1.2500 1.0000 8.2000
v 1.2500 1.0000 9.8000
v 1.2500 1.0800 8.2000
v 1.2500 1.0800 9.8000
f 401 402 404 403
f 405 407 408 406
f 401 405 406 402
f 403 404 408 407
f 401 403 407 405
f 402 406 408 404
usemtl c_232325
v 3.2500 1.0000 8.2000
v 3.2500 1.0000 9.8000
v 3.2500 1.0800 8.2000
v 3.2500 1.0800 9.8000
v 3.7500 1.0000 8.2000
v 3.7500 1.0000 9.8000
v 3.7500 1.0800 8.2000
v 3.7500 1.0800 9.8000
f 409 410 412 411
f 413 415 416 414
f 409 413 414 410
f 411 412 416 415
f 409 411 415 413
f 410 414 416 412
usemtl c_232325
v 5.7500 1.0000 8.2000
v 5.7500 1.0000 9.8000
v 5.7500 1.0800 8.2000
v 5.7500 1.0800 9.8000
v 6.2500 1.0000 8.2000
v 6.2500 1.0000 9.8000
v 6.2500 1.0800 8.2000
v 6.2500 1.0800 9.8000
f 417 418 420 419
f 421 423 424 422
f 417 421 422 418
f 419 420 424 423
f 417 419 423 421
f 418 422 424 420
usemtl c_232325
v 8.2500 1.0000 8.2000
v 8.2500 1.0000 9.8000
v 8.2500 1.0800 8.2000
v 8.2500 1.0800 9.8000
v 8.7500 1.0000 8.2000
v 8.7500 1.0000 9.8000
v 8.7500 1.0800 8.2000
v 8.7500 1.0800 9.8000
f 425 426 428 427
f 429 431 432 430
f 425 429 430 426
f 427 428 432 431
f 425 427 431 429
f 426 430 432 428
usemtl c_232325
v 10.7500 1.0000 8.2000
v 10.7500 1.0000 9.8000
v 10.7500 1.0800 8.2000
v 10.7500 1.0800 9.8000
v 11.2500 1.0000 8.2000
v 11.2500 1.0000 9.8000
v 11.2500 1.0800 8.2000
v 11.2500 1.0800 9.8000
f 433 434 436 435
f 437 439 440 438
f 433 437 438 434
f 435 436 440 439
f 433 435 439 437
f 434 438 440 436
usemtl c_232325
v 13.2500 1.0000 8.2000
v 13.2500 1.0000 9.8000
v 13.2500 1.0800 8.2000
v 13.2500 1.0800 9.8000
v 13.7500 1.0000 8.2000
v 13.7500 1.0000 9.8000
v 13.7500 1.0800 8.2000
v 13.7500 1.0800 9.8000
f 441 442 444 443
f 445 447 448 446
f 441 445 446 442
f 443 444 448 447
f 441 443 447 445
f 442 446 448 444
usemtl c_232325
v 15.7500 1.0000 8.2000
v 15.7500 1.0000 9.8000
v 15.7500 1.0800 8.2000
v 15.7500 1.0800 9.8000
v 16.2500 1.0000 8.2000
v 16.2500 1.0000 9.8000
v 16.2500 1.0800 8.2000
v 16.2500 1.0800 9.8000
f 449 450 452 451
f 453 455 456 454
f 449 453 454 450
f 451 452 456 455
f 449 451 455 453
f 450 454 456 452
usemtl c_232325
v 18.2500 1.0000 8.2000
v 18.2500 1.0000 9.8000
v 18.2500 1.0800 8.2000
v 18.2500 1.0800 9.8000
v 18.7500 1.0000 8.2000
v 18.7500 1.0000 9.8000
v 18.7500 1.0800 8.2000
v 18.7500 1.0800 9.8000
f 457 458 460 459
f 461 463 464 462
f 457 461 462 458
f 459 460 464 463
f 457 459 463 461
f 458 462 464 460
usemtl c_232325
v 20.7500 1.0000 8.2000
v 20.7500 1.0000 9.8000
v 20.7500 1.0800 8.2000
v 20.7500 1.0800 9.8000
v 21.2500 1.0000 8.2000
v 21.2500 1.0000 9.8000
v 21.2500 1.0800 8.2000
v 21.2500 1.0800 9.8000
f 465 466 468 467
f 469 471 472 470
f 465 469 470 466
f 467 468 472 471
f 465 467 471 469
f 466 470 472 468
usemtl c_232325
v 23.2500 1.0000 8.2000
v 23.2500 1.0000 9.8000
v 23.2500 1.0800 8.2000
v 23.2500 1.0800 9.8000
v 23.7500 1.0000 8.2000
v 23.7500 1.0000 9.8000
v 23.7500 1.0800 8.2000
v 23.7500 1.0800 9.8000
f 473 474 476 475
f 477 479 480 478
f 473 477 478 474
f 475 476 480 479
f 473 475 479 477
f 474 478 480 476
usemtl c_232325
v 25.7500 1.0000 8.2000
v 25.7500 1.0000 9.8000
v 25.7500 1.0800 8.2000
v 25.7500 1.0800 9.8000
v 26.2500 1.0000 8.2000
v 26.2500 1.0000 9.8000
v 26.2500 1.0800 8.2000
v 26.2500 1.0800 9.8000
f 481 482 484 483
f 485 487 488 486
f 481 485 486 482
f 483 484 488 487
f 481 483 487 485
f 482 486 488 484
usemtl c_232325
v 28.2500 1.0000 8.2000
v 28.2500 1.0000 9.8000
v 28.2500 1.0800 8.2000
v 28.2500 1.0800 9.8000
v 28.7500 1.0000 8.2000
v 28.7500 1.0000 9.8000
v 28.7500 1.0800 8.2000
v 28.7500 1.0800 9.8000
f 489 490 492 491
f 493 495 496 494
f 489 493 494 490
f 491 492 496 495
f 489 491 495 493
f 490 494 496 492
usemtl c_232325
v 30.7500 1.0000 8.2000
v 30.7500 1.0000 9.8000
v 30.7500 1.0800 8.2000
v 30.7500 1.0800 9.8000
v 31.2500 1.0000 8.2000
v 31.2500 1.0000 9.8000
v 31.2500 1.0800 8.2000
v 31.2500 1.0800 9.8000
f 497 498 500 499
f 501 503 504 502
f 497 501 502 498
f 499 500 504 503
f 497 499 503 501
f 498 502 504 500
usemtl c_232325
v 33.2500 1.0000 8.2000
v 33.2500 1.0000 9.8000
v 33.2500 1.0800 8.2000
v 33.2500 1.0800 9.8000
v 33.7500 1.0000 8.2000
v 33.7500 1.0000 9.8000
v 33.7500 1.0800 8.2000
v 33.7500 1.0800 9.8000
f 505 506 508 507
f 509 511 512 510
f 505 509 510 506
f 507 508 512 511
f 505 507 511 509
f 506 510 512 508
usemtl c_232325
v 35.7500 1.0000 8.2000
v 35.7500 1.0000 9.8000
v 35.7500 1.0800 8.2000
v 35.7500 1.0800 9.8000
v 36.2500 1.0000 8.2000
v 36.2500 1.0000 9.8000
v 36.2500 1.0800 8.2000
v 36.2500 1.0800 9.8000
f 513 514 516 515
f 517 519 520 518
f 513 517 518 514
f 515 516 520 519
f 513 515 519 517
f 514 518 520 516
usemtl c_232325
v 38.2500 1.0000 8.2000
v 38.2500 1.0000 9.8000
v 38.2500 1.0800 8.2000
v 38.2500 1.0800 9.8000
v 38.7500 1.0000 8.2000
v 38.7500 1.0000 9.8000
v 38.7500 1.0800 8.2000
v 38.7500 1.0800 9.8000
f 521 522 524 523
f 525 527 528 526
f 521 525 526 522
f 523 524 528 527
f 521 523 527 525
f 522 526 528 524
usemtl c_232325
v 40.7500 1.0000 8.2000
v 40.7500 1.0000 9.8000
v 40.7500 1.0800 8.2000
v 40.7500 1.0800 9.8000
v 41.2500 1.0000 8.2000
v 41.2500 1.0000 9.8000
v 41.2500 1.0800 8.2000
v 41.2500 1.0800 9.8000
f 529 530 532 531
f 533 535 536 534
f 529 533 534 530
f 531 532 536 535
f 529 531 535 533
f 530 534 536 532
usemtl c_232325
v 43.2500 1.0000 8.2000
v 43.2500 1.0000 9.8000
v 43.2500 1.0800 8.2000
v 43.2500 1.0800 9.8000
v 43.7500 1.0000 8.2000
v 43.7500 1.0000 9.8000
v 43.7500 1.0800 8.2000
v 43.7500 1.0800 9.8000
f 537 538 540 539
f 541 543 544 542
f 537 541 542 538
f 539 540 544 543
f 537 539 543 541
f 538 542 544 540
usemtl c_232325
v 45.7500 1.0000 8.2000
v 45.7500 1.0000 9.8000
v 45.7500 1.0800 8.2000
v 45.7500 1.0800 9.8000
v 46.2500 1.0000 8.2000
v 46.2500 1.0000 9.8000
v 46.2500 1.0800 8.2000
v 46.2500 1.0800 9.8000
f 545 546 548 547
f 549 551 552 550
f 545 549 550 546
f 547 548 552 551
f 545 547 551 549
f 546 550 552 548
usemtl c_232325
v 48.2500 1.0000 8.2000
v 48.2500 1.0000 9.8000
v 48.2500 1.0800 8.2000
v 48.2500 1.0800 9.8000
v 48.7500 1.0000 8.2000
v 48.7500 1.0000 9.8000
v 48.7500 1.0800 8.2000
v 48.7500 1.0800 9.8000
f 553 554 556 555
f 557 559 560 558
f 553 557 558 554
f 555 556 560 559
f 553 555 559 557
f 554 558 560 556
usemtl c_232325
v 50.7500 1.0000 8.2000
v 50.7500 1.0000 9.8000
v 50.7500 1.0800 8.2000
v 50.7500 1.0800 9.8000
v 51.2500 1.0000 8.2000
v 51.2500 1.0000 9.8000
v 51.2500 1.0800 8.2000
v 51.2500 1.0800 9.8000
f 561 562 564 563
f 565 567 568 566
f 561 565 566 562
f 563 564 568 567
f 561 563 567 565
f 562 566 568 564
usemtl c_232325
v 53.2500 1.0000 8.2000
v 53.2500 1.0000 9.8000
v 53.2500 1.0800 8.2000
v 53.2500 1.0800 9.8000
v 53.7500 1.0000 8.2000
v 53.7500 1.0000 9.8000
v 53.7500 1.0800 8.2000
v 53.7500 1.0800 9.8000
f 569 570 572 571
f 573 575 576 574
f 569 573 574 570
f 571 572 576 575
f 569 571 575 573
f 570 574 576 572
usemtl c_232325
v 55.7500 1.0000 8.2000
v 55.7500 1.0000 9.8000
v 55.7500 1.0800 8.2000
v 55.7500 1.0800 9.8000
v 56.2500 1.0000 8.2000
v 56.2500 1.0000 9.8000
v 56.2500 1.0800 8.2000
v 56.2500 1.0800 9.8000
f 577 578 580 579
f 581 583 584 582
f 577 581 582 578
f 579 580 584 583
f 577 579 583 581
f 578 582 584 580
usemtl c_232325
v 58.2500 1.0000 8.2000
v 58.2500 1.0000 9.8000
v 58.2500 1.0800 8.2000
v 58.2500 1.0800 9.8000
v 58.7500 1.0000 8.2000
v 58.7500 1.0000 9.8000
v 58.7500 1.0800 8.2000
v 58.7500 1.0800 9.8000
f 585 586 588 587
f 589 591 592 590
f 585 589 590 586
f 587 588 592 591
f 585 587 591 589
f 586 590 592 588
usemtl c_232325
v 60.7500 1.0000 8.2000
v 60.7500 1.0000 9.8000
v 60.7500 1.0800 8.2000
v 60.7500 1.0800 9.8000
v 61.2500 1.0000 8.2000
v 61.2500 1.0000 9.8000
v 61.2500 1.0800 8.2000
v 61.2500 1.0800 9.8000
f 593 594 596 595
f 597 599 600 598
f 593 597 598 594
f 595 596 600 599
f 593 595 599 597
f 594 598 600 596
usemtl c_232325
v 63.2500 1.0000 8.2000
v 63.2500 1.0000 9.8000
v 63.2500 1.0800 8.2000
v 63.2500 1.0800 9.8000
v 63.7500 1.0000 8.2000
v 63.7500 1.0000 9.8000
v 63.7500 1.0800 8.2000
v 63.7500 1.0800 9.8000
f 601 602 604 603
f 605 607 608 606
f 601 605 606 602
f 603 604 608 607
f 601 603 607 605
f 602 606 608 604
usemtl c_232325
v 65.7500 1.0000 8.2000
v 65.7500 1.0000 9.8000
v 65.7500 1.0800 8.2000
v 65.7500 1.0800 9.8000
v 66.2500 1.0000 8.2000
v 66.2500 1.0000 9.8000
v 66.2500 1.0800 8.2000
v 66.2500 1.0800 9.8000
f 609 610 612 611
f 613 615 616 614
f 609 613 614 610
f 611 612 616 615
f 609 611 615 613
f 610 614 616 612
usemtl c_232325
v 68.2500 1.0000 8.2000
v 68.2500 1.0000 9.8000
v 68.2500 1.0800 8.2000
v 68.2500 1.0800 9.8000
v 68.7500 1.0000 8.2000
v 68.7500 1.0000 9.8000
v 68.7500 1.0800 8.2000
v 68.7500 1.0800 9.8000
f 617 618 620 619
f 621 623 624 622
f 617 621 622 618
f 619 620 624 623
f 617 619 623 621
f 618 622 624 620
usemtl c_232325
v 70.7500 1.0000 8.2000
v 70.7500 1.0000 9.8000
v 70.7500 1.0800 8.2000
v 70.7500 1.0800 9.8000
v 71.2500 1.0000 8.2000
v 71.2500 1.0000 9.8000
v 71.2500 1.0800 8.2000
v 71.2500 1.0800 9.8000
f 625 626 628 627
f 629 631 632 630
f 625 629 630 626
f 627 628 632 631
f 625 627 631 629
f 626 630 632 628
usemtl c_232325
v 73.2500 1.0000 8.2000
v 73.2500 1.0000 9.8000
v 73.2500 1.0800 8.2000
v 73.2500 1.0800 9.8000
v 73.7500 1.0000 8.2000
v 73.7500 1.0000 9.8000
v 73.7500 1.0800 8.2000
v 73.7500 1.0800 9.8000
f 633 634 636 635
f 637 639 640 638
f 633 637 638 634
f 635 636 640 639
f 633 635 639 637
f 634 638 640 636
usemtl c_232325
v 75.7500 1.0000 8.2000
v 75.7500 1.0000 9.8000
v 75.7500 1.0800 8.2000
v 75.7500 1.0800 9.8000
v 76.2500 1.0000 8.2000
v 76.2500 1.0000 9.8000
v 76.2500 1.0800 8.2000
v 76.2500 1.0800 9.8000
f 641 642 644 643
f 645 647 648 646
f 641 645 646 642
f 643 644 648 647
f 641 643 647 645
f 642 646 648 644
usemtl c_232325
v 78.2500 1.0000 8.2000
v 78.2500 1.0000 9.8000
v 78.2500 1.0800 8.2000
v 78.2500 1.0800 9.8000
v 78.7500 1.0000 8.2000
v 78.7500 1.0000 9.8000
v 78.7500 1.0800 8.2000
v 78.7500 1.0800 9.8000
f 649 650 652 651
f 653 655 656 654
f 649 653 654 650
f 651 652 656 655
f 649 651 655 653
f 650 654 656 652
usemtl c_232325
v 80.7500 1.0000 8.2000
v 80.7500 1.0000 9.8000
v 80.7500 1.0800 8.2000
v 80.7500 1.0800 9.8000
v 81.2500 1.0000 8.2000
v 81.2500 1.0000 9.8000
v 81.2500 1.0800 8.2000
v 81.2500 1.0800 9.8000
f 657 658 660 659
f 661 663 664 662
f 657 661 662 658
f 659 660 664 663
f 657 659 663 661
f 658 662 664 660
usemtl c_232325
v 83.2500 1.0000 8.2000
v 83.2500 1.0000 9.8000
v 83.2500 1.0800 8.2000
v 83.2500 1.0800 9.8000
v 83.7500 1.0000 8.2000
v 83.7500 1.0000 9.8000
v 83.7500 1.0800 8.2000
v 83.7500 1.0800 9.8000
f 665 666 668 667
f 669 671 672 670
f 665 669 670 666
f 667 668 672 671
f 665 667 671 669
f 666 670 672 668
usemtl c_232325
v 85.7500 1.0000 8.2000
v 85.7500 1.0000 9.8000
v 85.7500 1.0800 8.2000
v 85.7500 1.0800 9.8000
v 86.2500 1.0000 8.2000
v 86.2500 1.0000 9.8000
v 86.2500 1.0800 8.2000
v 86.2500 1.0800 9.8000
f 673 674 676 675
f 677 679 680 678
f 673 677 678 674
f 675 676 680 679
f 673 675 679 677
f 674 678 680 676
usemtl c_232325
v 88.2500 1.0000 8.2000
v 88.2500 1.0000 9.8000
v 88.2500 1.0800 8.2000
v 88.2500 1.0800 9.8000
v 88.7500 1.0000 8.2000
v 88.7500 1.0000 9.8000
v 88.7500 1.0800 8.2000
v 88.7500 1.0800 9.8000
f 681 682 684 683
f 685 687 688 686
f 681 685 686 682
f 683 684 688 687
f 681 683 687 685
f 682 686 688 684
usemtl c_232325
v 90.7500 1.0000 8.2000
v 90.7500 1.0000 9.8000
v 90.7500 1.0800 8.2000
v 90.7500 1.0800 9.8000
v 91.2500 1.0000 8.2000
v 91.2500 1.0000 9.8000
v 91.2500 1.0800 8.2000
v 91.2500 1.0800 9.8000
f 689 690 692 691
f 693 695 696 694
f 689 693 694 690
f 691 692 696 695
f 689 691 695 693
f 690 694 696 692
usemtl c_232325
v 93.2500 1.0000 8.2000
v 93.2500 1.0000 9.8000
v 93.2500 1.0800 8.2000
v 93.2500 1.0800 9.8000
v 93.7500 1.0000 8.2000
v 93.7500 1.0000 9.8000
v 93.7500 1.0800 8.2000
v 93.7500 1.0800 9.8000
f 697 698 700 699
f 701 703 704 702
f 697 701 702 698
f 699 700 704 703
f 697 699 703 701
f 698 702 704 700
usemtl c_232325
v 95.7500 1.0000 8.2000
v 95.7500 1.0000 9.8000
v 95.7500 1.0800 8.2000
v 95.7500 1.0800 9.8000
v 96.2500 1.0000 8.2000
v 96.2500 1.0000 9.8000
v 96.2500 1.0800 8.2000
v 96.2500 1.0800 9.8000
f 705 706 708 707
f 709 711 712 710
f 705 709 710 706
f 707 708 712 711
f 705 707 711 709
f 706 710 712 708
usemtl c_232325
v 98.2500 1.0000 8.2000
v 98.2500 1.0000 9.8000
v 98.2500 1.0800 8.2000
v 98.2500 1.0800 9.8000
v 98.7500 1.0000 8.2000
v 98.7500 1.0000 9.8000
v 98.7500 1.0800 8.2000
v 98.7500 1.0800 9.8000
f 713 714 716 715
f 717 719 720 718
f 713 717 718 714
f 715 716 720 719
f 713 715 719 717
f 714 718 720 716
usemtl c_f0f0ed
v -100.0000 0.7000 9.6000
v -100.0000 0.7000 10.0000
v -100.0000 1.0000 9.6000
v -100.0000 1.0000 10.0000
v 100.0000 0.7000 9.6000
v 100.0000 0.7000 10.0000
v 100.0000 1.0000 9.6000
v 100.0000 1.0000 10.0000
f 721 722 724 723
f 725 727 728 726
f 721 725 726 722
f 723 724 728 727
f 721 723 727 725
f 722 726 728 724
usemtl c_dedfe2
v -101.0000 -4.0000 -11.0000
v -101.0000 -4.0000 -10.0000
v -101.0000 16.0000 -11.0000
v -101.0000 16.0000 -10.0000
v 101.0000 -4.0000 -11.0000
v 101.0000 -4.0000 -10.0000
v 101.0000 16.0000 -11.0000
v 101.0000 16.0000 -10.0000
f 729 730 732 731
f 733 735 736 734
f 729 733 734 730
f 731 732 736 735
f 729 731 735 733
f 730 734 736 732
usemtl c_3c6eaa
v -100.0000 1.8000 -10.0000
v -100.0000 1.8000 -9.9000
v -100.0000 3.0000 -10.0000
v -100.0000 3.0000 -9.9000
v 100.0000 1.8000 -10.0000
v 100.0000 1.8000 -9.9000
v 100.0000 3.0000 -10.0000
v 100.0000 3.0000 -9.9000
f 737 738 740 739
f 741 743 744 742
f 737 741 742 738
f 739 740 744 743
f 737 739 743 741
f 738 742 744 740
usemtl c_454a52
v -100.0000 1.0000 -9.9750
v -100.0000 1.0000 -9.8250
v -100.0000 2.4000 -9.9750
v -100.0000 2.4000 -9.8250
v 100.0000 1.0000 -9.9750
v 100.0000 1.0000 -9.8250
v 100.0000 2.4000 -9.9750
v 100.0000 2.4000 -9.8250
f 745 746 748 747
f 749 751 752 750
f 745 749 750 746
f 747 748 752 751
f 745 747 751 749
f 746 750 752 748
usemtl c_aaaeb4
v -90.0750 3.0000 -10.0100
v -90.0750 3.0000 -9.9300
v -90.0750 16.0000 -10.0100
v -90.0750 16.0000 -9.9300
v -89.9250 3.0000 -10.0100
v -89.9250 3.0000 -9.9300
v -89.9250 16.0000 -10.0100
v -89.9250 16.0000 -9.9300
f 753 754 756 755
f 757 759 760 758
f 753 757 758 754
f 755 756 760 759
f 753 755 759 757
f 754 758 760 756
usemtl c_aaaeb4
v -80.0750 3.0000 -10.0100
v -80.0750 3.0000 -9.9300
v -80.0750 16.0000 -10.0100
v -80.0750 16.0000 -9.9300
v -79.9250 3.0000 -10.0100
v -79.9250 3.0000 -9.9300
v -79.9250 16.0000 -10.0100
v -79.9250 16.0000 -9.9300
f 761 762 764 763
f 765 767 768 766
f 761 765 766 762
f 763 764 768 767
f 761 763 767 765
f 762 766 768 764
usemtl c_aaaeb4
v -70.0750 3.0000 -10.0100
v -70.0750 3.0000 -9.9300
v -70.0750 16.0000 -10.0100
v -70.0750 16.0000 -9.9300
v -69.9250 3.0000 -10.0100
v -69.9250 3.0000 -9.9300
v -69.9250 16.0000 -10.0100
v -69.9250 16.0000 -9.9300
f 769 770 772 771
f 773 775 776 774
f 769 773 774 770
f 771 772 776 775
f 769 771 775 773
f 770 774 776 772
usemtl c_aaaeb4
v -60.0750 3.0000 -10.0100
v -60.0750 3.0000 -9.9300
v -60.0750 16.0000 -10.0100
v -60.0750 16.0000 -9.9300
v -59.9250 3.0000 -10.0100
v -59.9250 3.0000 -9.9300
v -59.9250 16.0000 -10.0100
v -59.9250 16.0000 -9.9300
f 777 778 780 779
f 781 783 784 782
f 777 781 782 778
f 779 780 784 783
f 777 779 783 781
f 778 782 784 780
usemtl c_aaaeb4
v -50.0750 3.0000 -10.0100
v -50.0750 3.0000 -9.9300
v -50.0750 16.0000 -10.0100
v -50.0750 16.0000 -9.9300
v -49.9250 3.0000 -10.0100
v -49.9250 3.0000 -9.9300
v -49.9250 16.0000 -10.0100
v -49.9250 16.0000 -9.9300
f 785 786 788 787
f 789 791 792 790
f 785 789 790 786
f 787 788 792 791
f 785 787 791 789
f 786 790 792 788
usemtl c_aaaeb4
v -40.0750 3.0000 -10.0100
v -40.0750 3.0000 -9.9300
v -40.0750 16.0000 -10.0100
v -40.0750 16.0000 -9.9300
v -39.9250 3.0000 -10.0100
v -39.9250 3.0000 -9.9300
v -39.9250 16.0000 -10.0100
v -39.9250 16.0000 -9.9300
f 793 794 796 795
f 797 799 800 798
f 793 797 798 794
f 795 796 800 799
f 793 795 799 797
f 794 798 800 796
usemtl c_aaaeb4
v -30.0750 3.0000 -10.0100
v -30.0750 3.0000 -9.9300
v -30.0750 16.0000 -10.0100
v -30.0750 16.0000 -9.9300
v -29.9250 3.0000 -10.0100
v -29.9250 3.0000 -9.9300
v -29.9250 16.0000 -10.0100
v -29.9250 16.0000 -9.9300
f 801 802 804 803
f 805 807 808 806
f 801 805 806 802
f 803 804 808 807
f 801 803 807 805
f 802 806 808 804
usemtl c_aaaeb4
v -20.0750 3.0000 -10.0100
v -20.0750 3.0000 -9.9300
v -20.0750 16.0000 -10.0100
v -20.0750 16.0000 -9.9300
v -19.9250 3.0000 -10.0100
v -19.9250 3.0000 -9.9300
v -19.9250 16.0000 -10.0100
v -19.9250 16.0000 -9.9300
f 809 810 812 811
f 813 815 816 814
f 809 813 814 810
f 811 812 816 815
f 809 811 815 813
f 810 814 816 812
usemtl c_aaaeb4
v -10.0750 3.0000 -10.0100
v -10.0750 3.0000 -9.9300
v -10.0750 16.0000 -10.0100
v -10.0750 16.0000 -9.9300
v -9.9250 3.0000 -10.0100
v -9.9250 3.0000 -9.9300
v -9.9250 16.0000 -10.0100
v -9.9250 16.0000 -9.9300
f 817 818 820 819
f 821 823 824 822
f 817 821 822 818
f 819 820 824 823
f 817 819 823 821
f 818 822 824 820
usemtl c_aaaeb4
v -0.0750 3.0000 -10.0100
v -0.0750 3.0000 -9.9300
v -0.0750 16.0000 -10.0100
v -0.0750 16.0000 -9.9300
v 0.0750 3.0000 -10.0100
v 0.0750 3.0000 -9.9300
v 0.0750 16.0000 -10.0100
v 0.0750 16.0000 -9.9300
f 825 826 828 827
f 829 831 832 830
f 825 829 830 826
f 827 828 832 831
f 825 827 831 829
f 826 830 832 828
usemtl c_aaaeb4
v 9.9250 3.0000 -10.0100
v 9.9250 3.0000 -9.9300
v 9.9250 16.0000 -10.0100
v 9.9250 16.0000 -9.9300
v 10.0750 3.0000 -10.0100
v 10.0750 3.0000 -9.9300
v 10.0750 16.0000 -10.0100
v 10.0750 16.0000 -9.9300
f 833 834 836 835
f 837 839 840 838
f 833 837 838 834
f 835 836 840 839
f 833 835 839 837
f 834 838 840 836
usemtl c_aaaeb4
v 19.9250 3.0000 -10.0100
v 19.9250 3.0000 -9.9300
v 19.9250 16.0000 -10.0100
v 19.9250 16.0000 -9.9300
v 20.0750 3.0000 -10.0100
v 20.0750 3.0000 -9.9300
v 20.0750 16.0000 -10.0100
v 20.0750 16.0000 -9.9300
f 841 842 844 843
f 845 847 848 846
f 841 845 846 842
f 843 844 848 847
f 841 843 847 845
f 842 846 848 844
usemtl c_aaaeb4
v 29.9250 3.0000 -10.0100
v 29.9250 3.0000 -9.9300
v 29.9250 16.0000 -10.0100
v 29.9250 16.0000 -9.9300
v 30.0750 3.0000 -10.0100
v 30.0750 3.0000 -9.9300
v 30.0750 16.0000 -10.0100
v 30.0750 16.0000 -9.9300
f 849 850 852 851
f 853 855 856 854
f 849 853 854 850
f 851 852 856 855
f 849 851 855 853
f 850 854 856 852
usemtl c_aaaeb4
v 39.9250 3.0000 -10.0100
v 39.9250 3.0000 -9.9300
v 39.9250 16.0000 -10.0100
v 39.9250 16.0000 -9.9300
v 40.0750 3.0000 -10.0100
v 40.0750 3.0000 -9.9300
v 40.0750 16.0000 -10.0100
v 40.0750 16.0000 -9.9300
f 857 858 860 859
f 861 863 864 862
f 857 861 862 858
f 859 860 864 863
f 857 859 863 861
f 858 862 864 860
usemtl c_aaaeb4
v 49.9250 3.0000 -10.0100
v 49.9250 3.0000 -9.9300
v 49.9250 16.0000 -10.0100
v 49.9250 16.0000 -9.9300
v 50.0750 3.0000 -10.0100
v 50.0750 3.0000 -9.9300
v 50.0750 16.0000 -10.0100
v 50.0750 16.0000 -9.9300
f 865 866 868 867
f 869 871 872 870
f 865 869 870 866
f 867 868 872 871
f 865 867 871 869
f 866 870 872 868
usemtl c_aaaeb4
v 59.9250 3.0000 -10.0100
v 59.9250 3.0000 -9.9300
v 59.9250 16.0000 -10.0100
v 59.9250 16.0000 -9.9300
v 60.0750 3.0000 -10.0100
v 60.0750 3.0000 -9.9300
v 60.0750 16.0000 -10.0100
v 60.0750 16.0000 -9.9300
f 873 874 876 875
f 877 879 880 878
f 873 877 878 874
f 875 876 880 879
f 873 875 879 877
f 874 878 880 876
usemtl c_aaaeb4
v 69.9250 3.0000 -10.0100
v 69.9250 3.0000 -9.9300
v 69.9250 16.0000 -10.0100
v 69.9250 16.0000 -9.9300
v 70.0750 3.0000 -10.0100
v 70.0750 3.0000 -9.9300
v 70.0750 16.0000 -10.0100
v 70.0750 16.0000 -9.9300
f 881 882 884 883
f 885 887 888 886
f 881 885 886 882
f 883 884 888 887
f 881 883 887 885
f 882 886 888 884
usemtl c_aaaeb4
v 79.9250 3.0000 -10.0100
v 79.9250 3.0000 -9.9300
v 79.9250 16.0000 -10.0100
v 79.9250 16.0000 -9.9300
v 80.0750 3.0000 -10.0100
v 80.0750 3.0000 -9.9300
v 80.0750 16.0000 -10.0100
v 80.0750 16.0000 -9.9300
f 889 890 892 891
f 893 895 896 894
f 889 893 894 890
f 891 892 896 895
f 889 891 895 893
f 890 894 896 892
usemtl c_aaaeb4
v 89.9250 3.0000 -10.0100
v 89.9250 3.0000 -9.9300
v 89.9250 16.0000 -10.0100
v 89.9250 16.0000 -9.9300
v 90.0750 3.0000 -10.0100
v 90.0750 3.0000 -9.9300
v 90.0750 16.0000 -10.0100
v 90.0750 16.0000 -9.9300
f 897 898 900 899
f 901 903 904 902
f 897 901 902 898
f 899 900 904 903
f 897 899 903 901
f 898 902 904 900
usemtl c_2d2d2f
v -101.0000 -4.0000 27.0000
v -101.0000 -4.0000 28.0000
v -101.0000 16.0000 27.0000
v -101.0000 16.0000 28.0000
v 101.0000 -4.0000 27.0000
v 101.0000 -4.0000 28.0000
v 101.0000 16.0000 27.0000
v 101.0000 16.0000 28.0000
f 905 906 908 907
f 909 911 912 910
f 905 909 910 906
f 907 908 912 911
f 905 907 911 909
f 906 910 912 908
usemtl c_ff9528
v -89.5000 8.8000 26.8000
v -89.5000 8.8000 27.0000
v -89.5000 9.2000 26.8000
v -89.5000 9.2000 27.0000
v -86.5000 8.8000 26.8000
v -86.5000 8.8000 27.0000
v -86.5000 9.2000 26.8000
v -86.5000 9.2000 27.0000
f 913 914 916 915
f 917 919 920 918
f 913 917 918 914
f 915 916 920 919
f 913 915 919 917
f 914 918 920 916
usemtl c_ff9528
v -64.5000 8.8000 26.8000
v -64.5000 8.8000 27.0000
v -64.5000 9.2000 26.8000
v -64.5000 9.2000 27.0000
v -61.5000 8.8000 26.8000
v -61.5000 8.8000 27.0000
v -61.5000 9.2000 26.8000
v -61.5000 9.2000 27.0000
f 921 922 924 923
f 925 927 928 926
f 921 925 926 922
f 923 924 928 927
f 921 923 927 925
f 922 926 928 924
usemtl c_ff9528
v -39.5000 8.8000 26.8000
v -39.5000 8.8000 27.0000
v -39.5000 9.2000 26.8000
v -39.5000 9.2000 27.0000
v -36.5000 8.8000 26.8000
v -36.5000 8.8000 27.0000
v -36.5000 9.2000 26.8000
v -36.5000 9.2000 27.0000
f 929 930 932 931
f 933 935 936 934
f 929 933 934 930
f 931 932 936 935
f 929 931 935 933
f 930 934 936 932
usemtl c_ff9528
v -14.5000 8.8000 26.8000
v -14.5000 8.8000 27.0000
v -14.5000 9.2000 26.8000
v -14.5000 9.2000 27.0000
v -11.5000 8.8000 26.8000
v -11.5000 8.8000 27.0000
v -11.5000 9.2000 26.8000
v -11.5000 9.2000 27.0000
f 937 938 940 939
f 941 943 944 942
f 937 941 942 938
f 939 940 944 943
f 937 939 943 941
f 938 942 944 940
usemtl c_ff9528
v 10.5000 8.8000 26.8000
v 10.5000 8.8000 27.0000
v 10.5000 9.2000 26.8000
v 10.5000 9.2000 27.0000
v 13.5000 8.8000 26.8000
v 13.5000 8.8000 27.0000
v 13.5000 9.2000 26.8000
v 13.5000 9.2000 27.0000
f 945 946 948 947
f 949 951 952 950
f 945 949 950 946
f 947 948 952 951
f 945 947 951 949
f 946 950 952 948
usemtl c_ff9528
v 35.5000 8.8000 26.8000
v 35.5000 8.8000 27.0000
v 35.5000 9.2000 26.8000
v 35.5000 9.2000 27.0000
v 38.5000 8.8000 26.8000
v 38.5000 8.8000 27.0000
v 38.5000 9.2000 26.8000
v 38.5000 9.2000 27.0000
f 953 954 956 955
f 957 959 960 958
f 953 957 958 954
f 955 956 960 959
f 953 955 959 957
f 954 958 960 956
usemtl c_ff9528
v 60.5000 8.8000 26.8000
v 60.5000 8.8000 27.0000
v 60.5000 9.2000 26.8000
v 60.5000 9.2000 27.0000
v 63.5000 8.8000 26.8000
v 63.5000 8.8000 27.0000
v 63.5000 9.2000 26.8000
v 63.5000 9.2000 27.0000
f 961 962 964 963
f 965 967 968 966
f 961 965 966 962
f 963 964 968 967
f 961 963 967 965
f 962 966 968 964
usemtl c_ff9528
v 85.5000 8.8000 26.8000
v 85.5000 8.8000 27.0000
v 85.5000 9.2000 26.8000
v 85.5000 9.2000 27.0000
v 88.5000 8.8000 26.8000
v 88.5000 8.8000 27.0000
v 88.5000 9.2000 26.8000
v 88.5000 9.2000 27.0000
f 969 970 972 971
f 973 975 976 974
f 969 973 974 970
f 971 972 976 975
f 969 971 975 973
f 970 974 976 972
usemtl c_cccfd1
v -101.0000 16.0000 -11.0000
v -101.0000 16.0000 28.0000
v -101.0000 17.0000 -11.0000
v -101.0000 17.0000 28.0000
v 101.0000 16.0000 -11.0000
v 101.0000 16.0000 28.0000
v 101.0000 17.0000 -11.0000
v 101.0000 17.0000 28.0000
f 977 978 980 979
f 981 983 984 982
f 977 981 982 978
f 979 980 984 983
f 977 979 983 981
f 978 982 984 980
usemtl c_595d64
v -100.7500 14.8000 -10.5000
v -100.7500 14.8000 10.0000
v -100.7500 16.0000 -10.5000
v -100.7500 16.0000 10.0000
v -99.2500 14.8000 -10.5000
v -99.2500 14.8000 10.0000
v -99.2500 16.0000 -10.5000
v -99.2500 16.0000 10.0000
f 985 986 988 987
f 989 991 992 990
f 985 989 990 986
f 987 988 992 991
f 985 987 991 989
f 986 990 992 988
usemtl c_595d64
v -80.7500 14.8000 -10.5000
v -80.7500 14.8000 10.0000
v -80.7500 16.0000 -10.5000
v -80.7500 16.0000 10.0000
v -79.2500 14.8000 -10.5000
v -79.2500 14.8000 10.0000
v -79.2500 16.0000 -10.5000
v -79.2500 16.0000 10.0000
f 993 994 996 995
f 997 999 1000 998
f 993 997 998 994
f 995 996 1000 999
f 993 995 999 997
f 994 998 1000 996
usemtl c_595d64
v -60.7500 14.8000 -10.5000
v -60.7500 14.8000 10.0000
v -60.7500 16.0000 -10.5000
v -60.7500 16.0000 10.0000
v -59.2500 14.8000 -10.5000
v -59.2500 14.8000 10.0000
v -59.2500 16.0000 -10.5000
v -59.2500 16.0000 10.0000
f 1001 1002 1004 1003
f 1005 1007 1008 1006
f 1001 1005 1006 1002
f 1003 1004 1008 1007
f 1001 1003 1007 1005
f 1002 1006 1008 1004
usemtl c_595d64
v -40.7500 14.8000 -10.5000
v -40.7500 14.8000 10.0000
v -40.7500 16.0000 -10.5000
v -40.7500 16.0000 10.0000
v -39.2500 14.8000 -10.5000
v -39.2500 14.8000 10.0000
v -39.2500 16.0000 -10.5000
v -39.2500 16.0000 10.0000
f 1009 1010 1012 1011
f 1013 1015 1016 1014
f 1009 1013 1014 1010
f 1011 1012 1016 1015
f 1009 1011 1015 1013
f 1010 1014 1016 1012
usemtl c_595d64
v -20.7500 14.8000 -10.5000
v -20.7500 14.8000 10.0000
v -20.7500 16.0000 -10.5000
v -20.7500 16.0000 10.0000
v -19.2500 14.8000 -10.5000
v -19.2500 14.8000 10.0000
v -19.2500 16.0000 -10.5000
v -19.2500 16.0000 10.0000
f 1017 1018 1020 1019
f 1021 1023 1024 1022
f 1017 1021 1022 1018
f 1019 1020 1024 1023
f 1017 1019 1023 1021
f 1018 1022 1024 1020
usemtl c_595d64
v -0.7500 14.8000 -10.5000
v -0.7500 14.8000 10.0000
v -0.7500 16.0000 -10.5000
v -0.7500 16.0000 10.0000
v 0.7500 14.8000 -10.5000
v 0.7500 14.8000 10.0000
v 0.7500 16.0000 -10.5000
v 0.7500 16.0000 10.0000
f 1025 1026 1028 1027
f 1029 1031 1032 1030
f 1025 1029 1030 1026
f 1027 1028 1032 1031
f 1025 1027 1031 1029
f 1026 1030 1032 1028
usemtl c_595d64
v 19.2500 14.8000 -10.5000
v 19.2500 14.8000 10.0000
v 19.2500 16.0000 -10.5000
v 19.2500 16.0000 10.0000
v 20.7500 14.8000 -10.5000
v 20.7500 14.8000 10.0000
v 20.7500 16.0000 -10.5000
v 20.7500 16.0000 10.0000
f 1033 1034 1036 1035
f 1037 1039 1040 1038
f 1033 1037 1038 1034
f 1035 1036 1040 1039
f 1033 1035 1039 1037
f 1034 1038 1040 1036
usemtl c_595d64
v 39.2500 14.8000 -10.5000
v 39.2500 14.8000 10.0000
v 39.2500 16.0000 -10.5000
v 39.2500 16.0000 10.0000
v 40.7500 14.8000 -10.5000
v 40.7500 14.8000 10.0000
v 40.7500 16.0000 -10.5000
v 40.7500 16.0000 10.0000
f 1041 1042 1044 1043
f 1045 1047 1048 1046
f 1041 1045 1046 1042
f 1043 1044 1048 1047
f 1041 1043 1047 1045
f 1042 1046 1048 1044
usemtl c_595d64
v 59.2500 14.8000 -10.5000
v 59.2500 14.8000 10.0000
v 59.2500 16.0000 -10.5000
v 59.2500 16.0000 10.0000
v 60.7500 14.8000 -10.5000
v 60.7500 14.8000 10.0000
v 60.7500 16.0000 -10.5000
v 60.7500 16.0000 10.0000
f 1049 1050 1052 1051
f 1053 1055 1056 1054
f 1049 1053 1054 1050
f 1051 1052 1056 1055
f 1049 1051 1055 1053
f 1050 1054 1056 1052
usemtl c_595d64
v 79.2500 14.8000 -10.5000
v 79.2500 14.8000 10.0000
v 79.2500 16.0000 -10.5000
v 79.2500 16.0000 10.0000
v 80.7500 14.8000 -10.5000
v 80.7500 14.8000 10.0000
v 80.7500 16.0000 -10.5000
v 80.7500 16.0000 10.0000
f 1057 1058 1060 1059
f 1061 1063 1064 1062
f 1057 1061 1062 1058
f 1059 1060 1064 1063
f 1057 1059 1063 1061
f 1058 1062 1064 1060
usemtl c_595d64
v 99.2500 14.8000 -10.5000
v 99.2500 14.8000 10.0000
v 99.2500 16.0000 -10.5000
v 99.2500 16.0000 10.0000
v 100.7500 14.8000 -10.5000
v 100.7500 14.8000 10.0000
v 100.7500 16.0000 -10.5000
v 100.7500 16.0000 10.0000
f 1065 1066 1068 1067
f 1069 1071 1072 1070
f 1065 1069 1070 1066
f 1067 1068 1072 1071
f 1065 1067 1071 1069
f 1066 1070 1072 1068
usemtl c_121213
v -100.0000 -4.0000 10.0000
v -100.0000 -4.0000 27.0000
v -100.0000 -3.0000 10.0000
v -100.0000 -3.0000 27.0000
v 100.0000 -4.0000 10.0000
v 100.0000 -4.0000 27.0000
v 100.0000 -3.0000 10.0000
v 100.0000 -3.0000 27.0000
f 1073 1074 1076 1075
f 1077 1079 1080 1078
f 1073 1077 1078 1074
f 1075 1076 1080 1079
f 1073 1075 1079 1077
f 1074 1078 1080 1076
usemtl c_59595e
v -100.0000 -3.0000 15.3000
v -100.0000 -3.0000 15.7000
v -100.0000 -2.6000 15.3000
v -100.0000 -2.6000 15.7000
v 100.0000 -3.0000 15.3000
v 100.0000 -3.0000 15.7000
v 100.0000 -2.6000 15.3000
v 100.0000 -2.6000 15.7000
f 1081 1082 1084 1083
f 1085 1087 1088 1086
f 1081 1085 1086 1082
f 1083 1084 1088 1087
f 1081 1083 1087 1085
f 1082 1086 1088 1084
usemtl c_59595e
v -100.0000 -3.0000 20.3000
v -100.0000 -3.0000 20.7000
v -100.0000 -2.6000 20.3000
v -100.0000 -2.6000 20.7000
v 100.0000 -3.0000 20.3000
v 100.0000 -3.0000 20.7000
v 100.0000 -2.6000 20.3000
v 100.0000 -2.6000 20.7000
f 1089 1090 1092 1091
f 1093 1095 1096 1094
f 1089 1093 1094 1090
f 1091 1092 1096 1095
f 1089 1091 1095 1093
f 1090 1094 1096 1092
o Station
usemtl c_e1e2e3
v -81.0000 1.0000 0.0000
v -81.0000 1.0000 2.0000
v -81.0000 16.0000 0.0000
v -81.0000 16.0000 2.0000
v -79.0000 1.0000 0.0000
v -79.0000 1.0000 2.0000
v -79.0000 16.0000 0.0000
v -79.0000 16.0000 2.0000
f 1097 1098 1100 1099
f 1101 1103 1104 1102
f 1097 1101 1102 1098
f 1099 1100 1104 1103
f 1097 1099 1103 1101
f 1098 1102 1104 1100
usemtl c_95c73c
v -81.1500 5.0000 -0.1500
v -81.1500 5.0000 2.1500
v -81.1500 13.0000 -0.1500
v -81.1500 13.0000 2.1500
v -78.8500 5.0000 -0.1500
v -78.8500 5.0000 2.1500
v -78.8500 13.0000 -0.1500
v -78.8500 13.0000 2.1500
f 1105 1106 1108 1107
f 1109 1111 1112 1110
f 1105 1109 1110 1106
f 1107 1108 1112 1111
f 1105 1107 1111 1109
f 1106 1110 1112 1108
usemtl c_95989c
v -81.3000 1.0000 -0.3000
v -81.3000 1.0000 2.3000
v -81.3000 1.6000 -0.3000
v -81.3000 1.6000 2.3000
v -78.7000 1.0000 -0.3000
v -78.7000 1.0000 2.3000
v -78.7000 1.6000 -0.3000
v -78.7000 1.6000 2.3000
f 1113 1114 1116 1115
f 1117 1119 1120 1118
f 1113 1117 1118 1114
f 1115 1116 1120 1119
f 1113 1115 1119 1117
f 1114 1118 1120 1116
usemtl c_e1e2e3
v -41.0000 1.0000 0.0000
v -41.0000 1.0000 2.0000
v -41.0000 16.0000 0.0000
v -41.0000 16.0000 2.0000
v -39.0000 1.0000 0.0000
v -39.0000 1.0000 2.0000
v -39.0000 16.0000 0.0000
v -39.0000 16.0000 2.0000
f 1121 1122 1124 1123
f 1125 1127 1128 1126
f 1121 1125 1126 1122
f 1123 1124 1128 1127
f 1121 1123 1127 1125
f 1122 1126 1128 1124
usemtl c_95c73c
v -41.1500 5.0000 -0.1500
v -41.1500 5.0000 2.1500
v -41.1500 13.0000 -0.1500
v -41.1500 13.0000 2.1500
v -38.8500 5.0000 -0.1500
v -38.8500 5.0000 2.1500
v -38.8500 13.0000 -0.1500
v -38.8500 13.0000 2.1500
f 1129 1130 1132 1131
f 1133 1135 1136 1134
f 1129 1133 1134 1130
f 1131 1132 1136 1135
f 1129 1131 1135 1133
f 1130 1134 1136 1132
usemtl c_95989c
v -41.3000 1.0000 -0.3000
v -41.3000 1.0000 2.3000
v -41.3000 1.6000 -0.3000
v -41.3000 1.6000 2.3000
v -38.7000 1.0000 -0.3000
v -38.7000 1.0000 2.3000
v -38.7000 1.6000 -0.3000
v -38.7000 1.6000 2.3000
f 1137 1138 1140 1139
f 1141 1143 1144 1142
f 1137 1141 1142 1138
f 1139 1140 1144 1143
f 1137 1139 1143 1141
f 1138 1142 1144 1140
usemtl c_e1e2e3
v -1.0000 1.0000 0.0000
v -1.0000 1.0000 2.0000
v -1.0000 16.0000 0.0000
v -1.0000 16.0000 2.0000
v 1.0000 1.0000 0.0000
v 1.0000 1.0000 2.0000
v 1.0000 16.0000 0.0000
v 1.0000 16.0000 2.0000
f 1145 1146 1148 1147
f 1149 1151 1152 1150
f 1145 1149 1150 1146
f 1147 1148 1152 1151
f 1145 1147 1151 1149
f 1146 1150 1152 1148
usemtl c_95c73c
v -1.1500 5.0000 -0.1500
v -1.1500 5.0000 2.1500
v -1.1500 13.0000 -0.1500
v -1.1500 13.0000 2.1500
v 1.1500 5.0000 -0.1500
v 1.1500 5.0000 2.1500
v 1.1500 13.0000 -0.1500
v 1.1500 13.0000 2.1500
f 1153 1154 1156 1155
f 1157 1159 1160 1158
f 1153 1157 1158 1154
f 1155 1156 1160 1159
f 1153 1155 1159 1157
f 1154 1158 1160 1156
usemtl c_95989c
v -1.3000 1.0000 -0.3000
v -1.3000 1.0000 2.3000
v -1.3000 1.6000 -0.3000
v -1.3000 1.6000 2.3000
v 1.3000 1.0000 -0.3000
v 1.3000 1.0000 2.3000
v 1.3000 1.6000 -0.3000
v 1.3000 1.6000 2.3000
f 1161 1162 1164 1163
f 1165 1167 1168 1166
f 1161 1165 1166 1162
f 1163 1164 1168 1167
f 1161 1163 1167 1165
f 1162 1166 1168 1164
usemtl c_e1e2e3
v 39.0000 1.0000 0.0000
v 39.0000 1.0000 2.0000
v 39.0000 16.0000 0.0000
v 39.0000 16.0000 2.0000
v 41.0000 1.0000 0.0000
v 41.0000 1.0000 2.0000
v 41.0000 16.0000 0.0000
v 41.0000 16.0000 2.0000
f 1169 1170 1172 1171
f 1173 1175 1176 1174
f 1169 1173 1174 1170
f 1171 1172 1176 1175
f 1169 1171 1175 1173
f 1170 1174 1176 1172
usemtl c_95c73c
v 38.8500 5.0000 -0.1500
v 38.8500 5.0000 2.1500
v 38.8500 13.0000 -0.1500
v 38.8500 13.0000 2.1500
v 41.1500 5.0000 -0.1500
v 41.1500 5.0000 2.1500
v 41.1500 13.0000 -0.1500
v 41.1500 13.0000 2.1500
f 1177 1178 1180 1179
f 1181 1183 1184 1182
f 1177 1181 1182 1178
f 1179 1180 1184 1183
f 1177 1179 1183 1181
f 1178 1182 1184 1180
usemtl c_95989c
v 38.7000 1.0000 -0.3000
v 38.7000 1.0000 2.3000
v 38.7000 1.6000 -0.3000
v 38.7000 1.6000 2.3000
v 41.3000 1.0000 -0.3000
v 41.3000 1.0000 2.3000
v 41.3000 1.6000 -0.3000
v 41.3000 1.6000 2.3000
f 1185 1186 1188 1187
f 1189 1191 1192 1190
f 1185 1189 1190 1186
f 1187 1188 1192 1191
f 1185 1187 1191 1189
f 1186 1190 1192 1188
usemtl c_e1e2e3
v 79.0000 1.0000 0.0000
v 79.0000 1.0000 2.0000
v 79.0000 16.0000 0.0000
v 79.0000 16.0000 2.0000
v 81.0000 1.0000 0.0000
v 81.0000 1.0000 2.0000
v 81.0000 16.0000 0.0000
v 81.0000 16.0000 2.0000
f 1193 1194 1196 1195
f 1197 1199 1200 1198
f 1193 1197 1198 1194
f 1195 1196 1200 1199
f 1193 1195 1199 1197
f 1194 1198 1200 1196
usemtl c_95c73c
v 78.8500 5.0000 -0.1500
v 78.8500 5.0000 2.1500
v 78.8500 13.0000 -0.1500
v 78.8500 13.0000 2.1500
v 81.1500 5.0000 -0.1500
v 81.1500 5.0000 2.1500
v 81.1500 13.0000 -0.1500
v 81.1500 13.0000 2.1500
f 1201 1202 1204 1203
f 1205 1207 1208 1206
f 1201 1205 1206 1202
f 1203 1204 1208 1207
f 1201 1203 1207 1205
f 1202 1206 1208 1204
usemtl c_95989c
v 78.7000 1.0000 -0.3000
v 78.7000 1.0000 2.3000
v 78.7000 1.6000 -0.3000
v 78.7000 1.6000 2.3000
v 81.3000 1.0000 -0.3000
v 81.3000 1.0000 2.3000
v 81.3000 1.6000 -0.3000
v 81.3000 1.6000 2.3000
f 1209 1210 1212 1211
f 1213 1215 1216 1214
f 1209 1213 1214 1210
f 1211 1212 1216 1215
f 1209 1211 1215 1213
f 1210 1214 1216 1212
usemtl c_fff5e3
v -94.0000 15.8000 -1.2500
v -94.0000 15.8000 1.2500
v -94.0000 16.0000 -1.2500
v -94.0000 16.0000 1.2500
v -86.0000 15.8000 -1.2500
v -86.0000 15.8000 1.2500
v -86.0000 16.0000 -1.2500
v -86.0000 16.0000 1.2500
f 1217 1218 1220 1219
f 1221 1223 1224 1222
f 1217 1221 1222 1218
f 1219 1220 1224 1223
f 1217 1219 1223 1221
f 1218 1222 1224 1220
usemtl c_fff5e3
v -74.0000 15.8000 -1.2500
v -74.0000 15.8000 1.2500
v -74.0000 16.0000 -1.2500
v -74.0000 16.0000 1.2500
v -66.0000 15.8000 -1.2500
v -66.0000 15.8000 1.2500
v -66.0000 16.0000 -1.2500
v -66.0000 16.0000 1.2500
f 1225 1226 1228 1227
f 1229 1231 1232 1230
f 1225 1229 1230 1226
f 1227 1228 1232 1231
f 1225 1227 1231 1229
f 1226 1230 1232 1228
usemtl c_fff5e3
v -54.0000 15.8000 -1.2500
v -54.0000 15.8000 1.2500
v -54.0000 16.0000 -1.2500
v -54.0000 16.0000 1.2500
v -46.0000 15.8000 -1.2500
v -46.0000 15.8000 1.2500
v -46.0000 16.0000 -1.2500
v -46.0000 16.0000 1.2500
f 1233 1234 1236 1235
f 1237 1239 1240 1238
f 1233 1237 1238 1234
f 1235 1236 1240 1239
f 1233 1235 1239 1237
f 1234 1238 1240 1236
usemtl c_fff5e3
v -34.0000 15.8000 -1.2500
v -34.0000 15.8000 1.2500
v -34.0000 16.0000 -1.2500
v -34.0000 16.0000 1.2500
v -26.0000 15.8000 -1.2500
v -26.0000 15.8000 1.2500
v -26.0000 16.0000 -1.2500
v -26.0000 16.0000 1.2500
f 1241 1242 1244 1243
f 1245 1247 1248 1246
f 1241 1245 1246 1242
f 1243 1244 1248 1247
f 1241 1243 1247 1245
f 1242 1246 1248 1244
usemtl c_fff5e3
v -14.0000 15.8000 -1.2500
v -14.0000 15.8000 1.2500
v -14.0000 16.0000 -1.2500
v -14.0000 16.0000 1.2500
v -6.0000 15.8000 -1.2500
v -6.0000 15.8000 1.2500
v -6.0000 16.0000 -1.2500
v -6.0000 16.0000 1.2500
f 1249 1250 1252 1251
f 1253 1255 1256 1254
f 1249 1253 1254 1250
f 1251 1252 1256 1255
f 1249 1251 1255 1253
f 1250 1254 1256 1252
usemtl c_fff5e3
v 6.0000 15.8000 -1.2500
v 6.0000 15.8000 1.2500
v 6.0000 16.0000 -1.2500
v 6.0000 16.0000 1.2500
v 14.0000 15.8000 -1.2500
v 14.0000 15.8000 1.2500
v 14.0000 16.0000 -1.2500
v 14.0000 16.0000 1.2500
f 1257 1258 1260 1259
f 1261 1263 1264 1262
f 1257 1261 1262 1258
f 1259 1260 1264 1263
f 1257 1259 1263 1261
f 1258 1262 1264 1260
usemtl c_fff5e3
v 26.0000 15.8000 -1.2500
v 26.0000 15.8000 1.2500
v 26.0000 16.0000 -1.2500
v 26.0000 16.0000 1.2500
v 34.0000 15.8000 -1.2500
v 34.0000 15.8000 1.2500
v 34.0000 16.0000 -1.2500
v 34.0000 16.0000 1.2500
f 1265 1266 1268 1267
f 1269 1271 1272 1270
f 1265 1269 1270 1266
f 1267 1268 1272 1271
f 1265 1267 1271 1269
f 1266 1270 1272 1268
usemtl c_fff5e3
v 46.0000 15.8000 -1.2500
v 46.0000 15.8000 1.2500
v 46.0000 16.0000 -1.2500
v 46.0000 16.0000 1.2500
v 54.0000 15.8000 -1.2500
v 54.0000 15.8000 1.2500
v 54.0000 16.0000 -1.2500
v 54.0000 16.0000 1.2500
f 1273 1274 1276 1275
f 1277 1279 1280 1278
f 1273 1277 1278 1274
f 1275 1276 1280 1279
f 1273 1275 1279 1277
f 1274 1278 1280 1276
usemtl c_fff5e3
v 66.0000 15.8000 -1.2500
v 66.0000 15.8000 1.2500
v 66.0000 16.0000 -1.2500
v 66.0000 16.0000 1.2500
v 74.0000 15.8000 -1.2500
v 74.0000 15.8000 1.2500
v 74.0000 16.0000 -1.2500
v 74.0000 16.0000 1.2500
f 1281 1282 1284 1283
f 1285 1287 1288 1286
f 1281 1285 1286 1282
f 1283 1284 1288 1287
f 1281 1283 1287 1285
f 1282 1286 1288 1284
usemtl c_fff5e3
v 86.0000 15.8000 -1.2500
v 86.0000 15.8000 1.2500
v 86.0000 16.0000 -1.2500
v 86.0000 16.0000 1.2500
v 94.0000 15.8000 -1.2500
v 94.0000 15.8000 1.2500
v 94.0000 16.0000 -1.2500
v 94.0000 16.0000 1.2500
f 1289 1290 1292 1291
f 1293 1295 1296 1294
f 1289 1293 1294 1290
f 1291 1292 1296 1295
f 1289 1291 1295 1293
f 1290 1294 1296 1292
usemtl c_fff5e3
v -74.0000 15.8000 6.2500
v -74.0000 15.8000 7.7500
v -74.0000 16.0000 6.2500
v -74.0000 16.0000 7.7500
v -66.0000 15.8000 6.2500
v -66.0000 15.8000 7.7500
v -66.0000 16.0000 6.2500
v -66.0000 16.0000 7.7500
f 1297 1298 1300 1299
f 1301 1303 1304 1302
f 1297 1301 1302 1298
f 1299 1300 1304 1303
f 1297 1299 1303 1301
f 1298 1302 1304 1300
usemtl c_fff5e3
v -34.0000 15.8000 6.2500
v -34.0000 15.8000 7.7500
v -34.0000 16.0000 6.2500
v -34.0000 16.0000 7.7500
v -26.0000 15.8000 6.2500
v -26.0000 15.8000 7.7500
v -26.0000 16.0000 6.2500
v -26.0000 16.0000 7.7500
f 1305 1306 1308 1307
f 1309 1311 1312 1310
f 1305 1309 1310 1306
f 1307 1308 1312 1311
f 1305 1307 1311 1309
f 1306 1310 1312 1308
usemtl c_fff5e3
v 6.0000 15.8000 6.2500
v 6.0000 15.8000 7.7500
v 6.0000 16.0000 6.2500
v 6.0000 16.0000 7.7500
v 14.0000 15.8000 6.2500
v 14.0000 15.8000 7.7500
v 14.0000 16.0000 6.2500
v 14.0000 16.0000 7.7500
f 1313 1314 1316 1315
f 1317 1319 1320 1318
f 1313 1317 1318 1314
f 1315 1316 1320 1319
f 1313 1315 1319 1317
f 1314 1318 1320 1316
usemtl c_fff5e3
v 46.0000 15.8000 6.2500
v 46.0000 15.8000 7.7500
v 46.0000 16.0000 6.2500
v 46.0000 16.0000 7.7500
v 54.0000 15.8000 6.2500
v 54.0000 15.8000 7.7500
v 54.0000 16.0000 6.2500
v 54.0000 16.0000 7.7500
f 1321 1322 1324 1323
f 1325 1327 1328 1326
f 1321 1325 1326 1322
f 1323 1324 1328 1327
f 1321 1323 1327 1325
f 1322 1326 1328 1324
usemtl c_955e2d
v -72.9000 2.6000 -9.0500
v -72.9000 2.6000 -7.3500
v -72.9000 3.0000 -9.0500
v -72.9000 3.0000 -7.3500
v -71.1000 2.6000 -9.0500
v -71.1000 2.6000 -7.3500
v -71.1000 3.0000 -9.0500
v -71.1000 3.0000 -7.3500
f 1329 1330 1332 1331
f 1333 1335 1336 1334
f 1329 1333 1334 1330
f 1331 1332 1336 1335
f 1329 1331 1335 1333
f 1330 1334 1336 1332
usemtl c_955e2d
v -72.9000 3.0500 -9.2000
v -72.9000 3.0500 -8.9000
v -72.9000 4.8500 -9.2000
v -72.9000 4.8500 -8.9000
v -71.1000 3.0500 -9.2000
v -71.1000 3.0500 -8.9000
v -71.1000 4.8500 -9.2000
v -71.1000 4.8500 -8.9000
f 1337 1338 1340 1339
f 1341 1343 1344 1342
f 1337 1341 1342 1338
f 1339 1340 1344 1343
f 1337 1339 1343 1341
f 1338 1342 1344 1340
usemtl c_955e2d
v -70.9000 2.6000 -9.0500
v -70.9000 2.6000 -7.3500
v -70.9000 3.0000 -9.0500
v -70.9000 3.0000 -7.3500
v -69.1000 2.6000 -9.0500
v -69.1000 2.6000 -7.3500
v -69.1000 3.0000 -9.0500
v -69.1000 3.0000 -7.3500
f 1345 1346 1348 1347
f 1349 1351 1352 1350
f 1345 1349 1350 1346
f 1347 1348 1352 1351
f 1345 1347 1351 1349
f 1346 1350 1352 1348
usemtl c_955e2d
v -70.9000 3.0500 -9.2000
v -70.9000 3.0500 -8.9000
v -70.9000 4.8500 -9.2000
v -70.9000 4.8500 -8.9000
v -69.1000 3.0500 -9.2000
v -69.1000 3.0500 -8.9000
v -69.1000 4.8500 -9.2000
v -69.1000 4.8500 -8.9000
f 1353 1354 1356 1355
f 1357 1359 1360 1358
f 1353 1357 1358 1354
f 1355 1356 1360 1359
f 1353 1355 1359 1357
f 1354 1358 1360 1356
usemtl c_955e2d
v -68.9000 2.6000 -9.0500
v -68.9000 2.6000 -7.3500
v -68.9000 3.0000 -9.0500
v -68.9000 3.0000 -7.3500
v -67.1000 2.6000 -9.0500
v -67.1000 2.6000 -7.3500
v -67.1000 3.0000 -9.0500
v -67.1000 3.0000 -7.3500
f 1361 1362 1364 1363
f 1365 1367 1368 1366
f 1361 1365 1366 1362
f 1363 1364 1368 1367
f 1361 1363 1367 1365
f 1362 1366 1368 1364
usemtl c_955e2d
v -68.9000 3.0500 -9.2000
v -68.9000 3.0500 -8.9000
v -68.9000 4.8500 -9.2000
v -68.9000 4.8500 -8.9000
v -67.1000 3.0500 -9.2000
v -67.1000 3.0500 -8.9000
v -67.1000 4.8500 -9.2000
v -67.1000 4.8500 -8.9000
f 1369 1370 1372 1371
f 1373 1375 1376 1374
f 1369 1373 1374 1370
f 1371 1372 1376 1375
f 1369 1371 1375 1373
f 1370 1374 1376 1372
usemtl c_a5a7ab
v -73.2000 2.3000 -8.8000
v -73.2000 2.3000 -8.2000
v -73.2000 2.6000 -8.8000
v -73.2000 2.6000 -8.2000
v -66.8000 2.3000 -8.8000
v -66.8000 2.3000 -8.2000
v -66.8000 2.6000 -8.8000
v -66.8000 2.6000 -8.2000
f 1377 1378 1380 1379
f 1381 1383 1384 1382
f 1377 1381 1382 1378
f 1379 1380 1384 1383
f 1377 1379 1383 1381
f 1378 1382 1384 1380
usemtl c_a5a7ab
v -73.1500 1.0000 -9.0000
v -73.1500 1.0000 -7.8000
v -73.1500 2.3000 -9.0000
v -73.1500 2.3000 -7.8000
v -72.8500 1.0000 -9.0000
v -72.8500 1.0000 -7.8000
v -72.8500 2.3000 -9.0000
v -72.8500 2.3000 -7.8000
f 1385 1386 1388 1387
f 1389 1391 1392 1390
f 1385 1389 1390 1386
f 1387 1388 1392 1391
f 1385 1387 1391 1389
f 1386 1390 1392 1388
usemtl c_a5a7ab
v -67.1500 1.0000 -9.0000
v -67.1500 1.0000 -7.8000
v -67.1500 2.3000 -9.0000
v -67.1500 2.3000 -7.8000
v -66.8500 1.0000 -9.0000
v -66.8500 1.0000 -7.8000
v -66.8500 2.3000 -9.0000
v -66.8500 2.3000 -7.8000
f 1393 1394 1396 1395
f 1397 1399 1400 1398
f 1393 1397 1398 1394
f 1395 1396 1400 1399
f 1393 1395 1399 1397
f 1394 1398 1400 1396
usemtl c_955e2d
v -52.9000 2.6000 -9.0500
v -52.9000 2.6000 -7.3500
v -52.9000 3.0000 -9.0500
v -52.9000 3.0000 -7.3500
v -51.1000 2.6000 -9.0500
v -51.1000 2.6000 -7.3500
v -51.1000 3.0000 -9.0500
v -51.1000 3.0000 -7.3500
f 1401 1402 1404 1403
f 1405 1407 1408 1406
f 1401 1405 1406 1402
f 1403 1404 1408 1407
f 1401 1403 1407 1405
f 1402 1406 1408 1404
usemtl c_955e2d
v -52.9000 3.0500 -9.2000
v -52.9000 3.0500 -8.9000
v -52.9000 4.8500 -9.2000
v -52.9000 4.8500 -8.9000
v -51.1000 3.0500 -9.2000
v -51.1000 3.0500 -8.9000
v -51.1000 4.8500 -9.2000
v -51.1000 4.8500 -8.9000
f 1409 1410 1412 1411
f 1413 1415 1416 1414
f 1409 1413 1414 1410
f 1411 1412 1416 1415
f 1409 1411 1415 1413
f 1410 1414 1416 1412
usemtl c_955e2d
v -50.9000 2.6000 -9.0500
v -50.9000 2.6000 -7.3500
v -50.9000 3.0000 -9.0500
v -50.9000 3.0000 -7.3500
v -49.1000 2.6000 -9.0500
v -49.1000 2.6000 -7.3500
v -49.1000 3.0000 -9.0500
v -49.1000 3.0000 -7.3500
f 1417 1418 1420 1419
f 1421 1423 1424 1422
f 1417 1421 1422 1418
f 1419 1420 1424 1423
f 1417 1419 1423 1421
f 1418 1422 1424 1420
usemtl c_955e2d
v -50.9000 3.0500 -9.2000
v -50.9000 3.0500 -8.9000
v -50.9000 4.8500 -9.2000
v -50.9000 4.8500 -8.9000
v -49.1000 3.0500 -9.2000
v -49.1000 3.0500 -8.9000
v -49.1000 4.8500 -9.2000
v -49.1000 4.8500 -8.9000
f 1425 1426 1428 1427
f 1429 1431 1432 1430
f 1425 1429 1430 1426
f 1427 1428 1432 1431
f 1425 1427 1431 1429
f 1426 1430 1432 1428
usemtl c_955e2d
v -48.9000 2.6000 -9.0500
v -48.9000 2.6000 -7.3500
v -48.9000 3.0000 -9.0500
v -48.9000 3.0000 -7.3500
v -47.1000 2.6000 -9.0500
v -47.1000 2.6000 -7.3500
v -47.1000 3.0000 -9.0500
v -47.1000 3.0000 -7.3500
f 1433 1434 1436 1435
f 1437 1439 1440 1438
f 1433 1437 1438 1434
f 1435 1436 1440 1439
f 1433 1435 1439 1437
f 1434 1438 1440 1436
usemtl c_955e2d
v -48.9000 3.0500 -9.2000
v -48.9000 3.0500 -8.9000
v -48.9000 4.8500 -9.2000
v -48.9000 4.8500 -8.9000
v -47.1000 3.0500 -9.2000
v -47.1000 3.0500 -8.9000
v -47.1000 4.8500 -9.2000
v -47.1000 4.8500 -8.9000
f 1441 1442 1444 1443
f 1445 1447 1448 1446
f 1441 1445 1446 1442
f 1443 1444 1448 1447
f 1441 1443 1447 1445
f 1442 1446 1448 1444
usemtl c_a5a7ab
v -53.2000 2.3000 -8.8000
v -53.2000 2.3000 -8.2000
v -53.2000 2.6000 -8.8000
v -53.2000 2.6000 -8.2000
v -46.8000 2.3000 -8.8000
v -46.8000 2.3000 -8.2000
v -46.8000 2.6000 -8.8000
v -46.8000 2.6000 -8.2000
f 1449 1450 1452 1451
f 1453 1455 1456 1454
f 1449 1453 1454 1450
f 1451 1452 1456 1455
f 1449 1451 1455 1453
f 1450 1454 1456 1452
usemtl c_a5a7ab
v -53.1500 1.0000 -9.0000
v -53.1500 1.0000 -7.8000
v -53.1500 2.3000 -9.0000
v -53.1500 2.3000 -7.8000
v -52.8500 1.0000 -9.0000
v -52.8500 1.0000 -7.8000
v -52.8500 2.3000 -9.0000
v -52.8500 2.3000 -7.8000
f 1457 1458 1460 1459
f 1461 1463 1464 1462
f 1457 1461 1462 1458
f 1459 1460 1464 1463
f 1457 1459 1463 1461
f 1458 1462 1464 1460
usemtl c_a5a7ab
v -47.1500 1.0000 -9.0000
v -47.1500 1.0000 -7.8000
v -47.1500 2.3000 -9.0000
v -47.1500 2.3000 -7.8000
v -46.8500 1.0000 -9.0000
v -46.8500 1.0000 -7.8000
v -46.8500 2.3000 -9.0000
v -46.8500 2.3000 -7.8000
f 1465 1466 1468 1467
f 1469 1471 1472 1470
f 1465 1469 1470 1466
f 1467 1468 1472 1471
f 1465 1467 1471 1469
f 1466 1470 1472 1468
usemtl c_955e2d
v -32.9000 2.6000 -9.0500
v -32.9000 2.6000 -7.3500
v -32.9000 3.0000 -9.0500
v -32.9000 3.0000 -7.3500
v -31.1000 2.6000 -9.0500
v -31.1000 2.6000 -7.3500
v -31.1000 3.0000 -9.0500
v -31.1000 3.0000 -7.3500
f 1473 1474 1476 1475
f 1477 1479 1480 1478
f 1473 1477 1478 1474
f 1475 1476 1480 1479
f 1473 1475 1479 1477
f 1474 1478 1480 1476
usemtl c_955e2d
v -32.9000 3.0500 -9.2000
v -32.9000 3.0500 -8.9000
v -32.9000 4.8500 -9.2000
v -32.9000 4.8500 -8.9000
v -31.1000 3.0500 -9.2000
v -31.1000 3.0500 -8.9000
v -31.1000 4.8500 -9.2000
v -31.1000 4.8500 -8.9000
f 1481 1482 1484 1483
f 1485 1487 1488 1486
f 1481 1485 1486 1482
f 1483 1484 1488 1487
f 1481 1483 1487 1485
f 1482 1486 1488 1484
usemtl c_955e2d
v -30.9000 2.6000 -9.0500
v -30.9000 2.6000 -7.3500
v -30.9000 3.0000 -9.0500
v -30.9000 3.0000 -7.3500
v -29.1000 2.6000 -9.0500
v -29.1000 2.6000 -7.3500
v -29.1000 3.0000 -9.0500
v -29.1000 3.0000 -7.3500
f 1489 1490 1492 1491
f 1493 1495 1496 1494
f 1489 1493 1494 1490
f 1491 1492 1496 1495
f 1489 1491 1495 1493
f 1490 1494 1496 1492
usemtl c_955e2d
v -30.9000 3.0500 -9.2000
v -30.9000 3.0500 -8.9000
v -30.9000 4.8500 -9.2000
v -30.9000 4.8500 -8.9000
v -29.1000 3.0500 -9.2000
v -29.1000 3.0500 -8.9000
v -29.1000 4.8500 -9.2000
v -29.1000 4.8500 -8.9000
f 1497 1498 1500 1499
f 1501 1503 1504 1502
f 1497 1501 1502 1498
f 1499 1500 1504 1503
f 1497 1499 1503 1501
f 1498 1502 1504 1500
usemtl c_955e2d
v -28.9000 2.6000 -9.0500
v -28.9000 2.6000 -7.3500
v -28.9000 3.0000 -9.0500
v -28.9000 3.0000 -7.3500
v -27.1000 2.6000 -9.0500
v -27.1000 2.6000 -7.3500
v -27.1000 3.0000 -9.0500
v -27.1000 3.0000 -7.3500
f 1505 1506 1508 1507
f 1509 1511 1512 1510
f 1505 1509 1510 1506
f 1507 1508 1512 1511
f 1505 1507 1511 1509
f 1506 1510 1512 1508
usemtl c_955e2d
v -28.9000 3.0500 -9.2000
v -28.9000 3.0500 -8.9000
v -28.9000 4.8500 -9.2000
v -28.9000 4.8500 -8.9000
v -27.1000 3.0500 -9.2000
v -27.1000 3.0500 -8.9000
v -27.1000 4.8500 -9.2000
v -27.1000 4.8500 -8.9000
f 1513 1514 1516 1515
f 1517 1519 1520 1518
f 1513 1517 1518 1514
f 1515 1516 1520 1519
f 1513 1515 1519 1517
f 1514 1518 1520 1516
usemtl c_a5a7ab
v -33.2000 2.3000 -8.8000
v -33.2000 2.3000 -8.2000
v -33.2000 2.6000 -8.8000
v -33.2000 2.6000 -8.2000
v -26.8000 2.3000 -8.8000
v -26.8000 2.3000 -8.2000
v -26.8000 2.6000 -8.8000
v -26.8000 2.6000 -8.2000
f 1521 1522 1524 1523
f 1525 1527 1528 1526
f 1521 1525 1526 1522
f 1523 1524 1528 1527
f 1521 1523 1527 1525
f 1522 1526 1528 1524
usemtl c_a5a7ab
v -33.1500 1.0000 -9.0000
v -33.1500 1.0000 -7.8000
v -33.1500 2.3000 -9.0000
v -33.1500 2.3000 -7.8000
v -32.8500 1.0000 -9.0000
v -32.8500 1.0000 -7.8000
v -32.8500 2.3000 -9.0000
v -32.8500 2.3000 -7.8000
f 1529 1530 1532 1531
f 1533 1535 1536 1534
f 1529 1533 1534 1530
f 1531 1532 1536 1535
f 1529 1531 1535 1533
f 1530 1534 1536 1532
usemtl c_a5a7ab
v -27.1500 1.0000 -9.0000
v -27.1500 1.0000 -7.8000
v -27.1500 2.3000 -9.0000
v -27.1500 2.3000 -7.8000
v -26.8500 1.0000 -9.0000
v -26.8500 1.0000 -7.8000
v -26.8500 2.3000 -9.0000
v -26.8500 2.3000 -7.8000
f 1537 1538 1540 1539
f 1541 1543 1544 1542
f 1537 1541 1542 1538
f 1539 1540 1544 1543
f 1537 1539 1543 1541
f 1538 1542 1544 1540
usemtl c_955e2d
v -12.9000 2.6000 -9.0500
v -12.9000 2.6000 -7.3500
v -12.9000 3.0000 -9.0500
v -12.9000 3.0000 -7.3500
v -11.1000 2.6000 -9.0500
v -11.1000 2.6000 -7.3500
v -11.1000 3.0000 -9.0500
v -11.1000 3.0000 -7.3500
f 1545 1546 1548 1547
f 1549 1551 1552 1550
f 1545 1549 1550 1546
f 1547 1548 1552 1551
f 1545 1547 1551 1549
f 1546 1550 1552 1548
usemtl c_955e2d
v -12.9000 3.0500 -9.2000
v -12.9000 3.0500 -8.9000
v -12.9000 4.8500 -9.2000
v -12.9000 4.8500 -8.9000
v -11.1000 3.0500 -9.2000
v -11.1000 3.0500 -8.9000
v -11.1000 4.8500 -9.2000
v -11.1000 4.8500 -8.9000
f 1553 1554 1556 1555
f 1557 1559 1560 1558
f 1553 1557 1558 1554
f 1555 1556 1560 1559
f 1553 1555 1559 1557
f 1554 1558 1560 1556
usemtl c_955e2d
v -10.9000 2.6000 -9.0500
v -10.9000 2.6000 -7.3500
v -10.9000 3.0000 -9.0500
v -10.9000 3.0000 -7.3500
v -9.1000 2.6000 -9.0500
v -9.1000 2.6000 -7.3500
v -9.1000 3.0000 -9.0500
v -9.1000 3.0000 -7.3500
f 1561 1562 1564 1563
f 1565 1567 1568 1566
f 1561 1565 1566 1562
f 1563 1564 1568 1567
f 1561 1563 1567 1565
f 1562 1566 1568 1564
usemtl c_955e2d
v -10.9000 3.0500 -9.2000
v -10.9000 3.0500 -8.9000
v -10.9000 4.8500 -9.2000
v -10.9000 4.8500 -8.9000
v -9.1000 3.0500 -9.2000
v -9.1000 3.0500 -8.9000
v -9.1000 4.8500 -9.2000
v -9.1000 4.8500 -8.9000
f 1569 1570 1572 1571
f 1573 1575 1576 1574
f 1569 1573 1574 1570
f 1571 1572 1576 1575
f 1569 1571 1575 1573
f 1570 1574 1576 1572
usemtl c_955e2d
v -8.9000 2.6000 -9.0500
v -8.9000 2.6000 -7.3500
v -8.9000 3.0000 -9.0500
v -8.9000 3.0000 -7.3500
v -7.1000 2.6000 -9.0500
v -7.1000 2.6000 -7.3500
v -7.1000 3.0000 -9.0500
v -7.1000 3.0000 -7.3500
f 1577 1578 1580 1579
f 1581 1583 1584 1582
f 1577 1581 1582 1578
f 1579 1580 1584 1583
f 1577 1579 1583 1581
f 1578 1582 1584 1580
usemtl c_955e2d
v -8.9000 3.0500 -9.2000
v -8.9000 3.0500 -8.9000
v -8.9000 4.8500 -9.2000
v -8.9000 4.8500 -8.9000
v -7.1000 3.0500 -9.2000
v -7.1000 3.0500 -8.9000
v -7.1000 4.8500 -9.2000
v -7.1000 4.8500 -8.9000
f 1585 1586 1588 1587
f 1589 1591 1592 1590
f 1585 1589 1590 1586
f 1587 1588 1592 1591
f 1585 1587 1591 1589
f 1586 1590 1592 1588
usemtl c_a5a7ab
v -13.2000 2.3000 -8.8000
v -13.2000 2.3000 -8.2000
v -13.2000 2.6000 -8.8000
v -13.2000 2.6000 -8.2000
v -6.8000 2.3000 -8.8000
v -6.8000 2.3000 -8.2000
v -6.8000 2.6000 -8.8000
v -6.8000 2.6000 -8.2000
f 1593 1594 1596 1595
f 1597 1599 1600 1598
f 1593 1597 1598 1594
f 1595 1596 1600 1599
f 1593 1595 1599 1597
f 1594 1598 1600 1596
usemtl c_a5a7ab
v -13.1500 1.0000 -9.0000
v -13.1500 1.0000 -7.8000
v -13.1500 2.3000 -9.0000
v -13.1500 2.3000 -7.8000
v -12.8500 1.0000 -9.0000
v -12.8500 1.0000 -7.8000
v -12.8500 2.3000 -9.0000
v -12.8500 2.3000 -7.8000
f 1601 1602 1604 1603
f 1605 1607 1608 1606
f 1601 1605 1606 1602
f 1603 1604 1608 1607
f 1601 1603 1607 1605
f 1602 1606 1608 1604
usemtl c_a5a7ab
v -7.1500 1.0000 -9.0000
v -7.1500 1.0000 -7.8000
v -7.1500 2.3000 -9.0000
v -7.1500 2.3000 -7.8000
v -6.8500 1.0000 -9.0000
v -6.8500 1.0000 -7.8000
v -6.8500 2.3000 -9.0000
v -6.8500 2.3000 -7.8000
f 1609 1610 1612 1611
f 1613 1615 1616 1614
f 1609 1613 1614 1610
f 1611 1612 1616 1615
f 1609 1611 1615 1613
f 1610 1614 1616 1612
usemtl c_955e2d
v 7.1000 2.6000 -9.0500
v 7.1000 2.6000 -7.3500
v 7.1000 3.0000 -9.0500
v 7.1000 3.0000 -7.3500
v 8.9000 2.6000 -9.0500
v 8.9000 2.6000 -7.3500
v 8.9000 3.0000 -9.0500
v 8.9000 3.0000 -7.3500
f 1617 1618 1620 1619
f 1621 1623 1624 1622
f 1617 1621 1622 1618
f 1619 1620 1624 1623
f 1617 1619 1623 1621
f 1618 1622 1624 1620
usemtl c_955e2d
v 7.1000 3.0500 -9.2000
v 7.1000 3.0500 -8.9000
v 7.1000 4.8500 -9.2000
v 7.1000 4.8500 -8.9000
v 8.9000 3.0500 -9.2000
v 8.9000 3.0500 -8.9000
v 8.9000 4.8500 -9.2000
v 8.9000 4.8500 -8.9000
f 1625 1626 1628 1627
f 1629 1631 1632 1630
f 1625 1629 1630 1626
f 1627 1628 1632 1631
f 1625 1627 1631 1629
f 1626 1630 1632 1628
usemtl c_955e2d
v 9.1000 2.6000 -9.0500
v 9.1000 2.6000 -7.3500
v 9.1000 3.0000 -9.0500
v 9.1000 3.0000 -7.3500
v 10.9000 2.6000 -9.0500
v 10.9000 2.6000 -7.3500
v 10.9000 3.0000 -9.0500
v 10.9000 3.0000 -7.3500
f 1633 1634 1636 1635
f 1637 1639 1640 1638
f 1633 1637 1638 1634
f 1635 1636 1640 1639
f 1633 1635 1639 1637
f 1634 1638 1640 1636
usemtl c_955e2d
v 9.1000 3.0500 -9.2000
v 9.1000 3.0500 -8.9000
v 9.1000 4.8500 -9.2000
v 9.1000 4.8500 -8.9000
v 10.9000 3.0500 -9.2000
v 10.9000 3.0500 -8.9000
v 10.9000 4.8500 -9.2000
v 10.9000 4.8500 -8.9000
f 1641 1642 1644 1643
f 1645 1647 1648 1646
f 1641 1645 1646 1642
f 1643 1644 1648 1647
f 1641 1643 1647 1645
f 1642 1646 1648 1644
usemtl c_955e2d
v 11.1000 2.6000 -9.0500
v 11.1000 2.6000 -7.3500
v 11.1000 3.0000 -9.0500
v 11.1000 3.0000 -7.3500
v 12.9000 2.6000 -9.0500
v 12.9000 2.6000 -7.3500
v 12.9000 3.0000 -9.0500
v 12.9000 3.0000 -7.3500
f 1649 1650 1652 1651
f 1653 1655 1656 1654
f 1649 1653 1654 1650
f 1651 1652 1656 1655
f 1649 1651 1655 1653
f 1650 1654 1656 1652
usemtl c_955e2d
v 11.1000 3.0500 -9.2000
v 11.1000 3.0500 -8.9000
v 11.1000 4.8500 -9.2000
v 11.1000 4.8500 -8.9000
v 12.9000 3.0500 -9.2000
v 12.9000 3.0500 -8.9000
v 12.9000 4.8500 -9.2000
v 12.9000 4.8500 -8.9000
f 1657 1658 1660 1659
f 1661 1663 1664 1662
f 1657 1661 1662 1658
f 1659 1660 1664 1663
f 1657 1659 1663 1661
f 1658 1662 1664 1660
usemtl c_a5a7ab
v 6.8000 2.3000 -8.8000
v 6.8000 2.3000 -8.2000
v 6.8000 2.6000 -8.8000
v 6.8000 2.6000 -8.2000
v 13.2000 2.3000 -8.8000
v 13.2000 2.3000 -8.2000
v 13.2000 2.6000 -8.8000
v 13.2000 2.6000 -8.2000
f 1665 1666 1668 1667
f 1669 1671 1672 1670
f 1665 1669 1670 1666
f 1667 1668 1672 1671
f 1665 1667 1671 1669
f 1666 1670 1672 1668
usemtl c_a5a7ab
v 6.8500 1.0000 -9.0000
v 6.8500 1.0000 -7.8000
v 6.8500 2.3000 -9.0000
v 6.8500 2.3000 -7.8000
v 7.1500 1.0000 -9.0000
v 7.1500 1.0000 -7.8000
v 7.1500 2.3000 -9.0000
v 7.1500 2.3000 -7.8000
f 1673 1674 1676 1675
f 1677 1679 1680 1678
f 1673 1677 1678 1674
f 1675 1676 1680 1679
f 1673 1675 1679 1677
f 1674 1678 1680 1676
usemtl c_a5a7ab
v 12.8500 1.0000 -9.0000
v 12.8500 1.0000 -7.8000
v 12.8500 2.3000 -9.0000
v 12.8500 2.3000 -7.8000
v 13.1500 1.0000 -9.0000
v 13.1500 1.0000 -7.8000
v 13.1500 2.3000 -9.0000
v 13.1500 2.3000 -7.8000
f 1681 1682 1684 1683
f 1685 1687 1688 1686
f 1681 1685 1686 1682
f 1683 1684 1688 1687
f 1681 1683 1687 1685
f 1682 1686 1688 1684
usemtl c_955e2d
v 27.1000 2.6000 -9.0500
v 27.1000 2.6000 -7.3500
v 27.1000 3.0000 -9.0500
v 27.1000 3.0000 -7.3500
v 28.9000 2.6000 -9.0500
v 28.9000 2.6000 -7.3500
v 28.9000 3.0000 -9.0500
v 28.9000 3.0000 -7.3500
f 1689 1690 1692 1691
f 1693 1695 1696 1694
f 1689 1693 1694 1690
f 1691 1692 1696 1695
f 1689 1691 1695 1693
f 1690 1694 1696 1692
usemtl c_955e2d
v 27.1000 3.0500 -9.2000
v 27.1000 3.0500 -8.9000
v 27.1000 4.8500 -9.2000
v 27.1000 4.8500 -8.9000
v 28.9000 3.0500 -9.2000
v 28.9000 3.0500 -8.9000
v 28.9000 4.8500 -9.2000
v 28.9000 4.8500 -8.9000
f 1697 1698 1700 1699
f 1701 1703 1704 1702
f 1697 1701 1702 1698
f 1699 1700 1704 1703
f 1697 1699 1703 1701
f 1698 1702 1704 1700
usemtl c_955e2d
v 29.1000 2.6000 -9.0500
v 29.1000 2.6000 -7.3500
v 29.1000 3.0000 -9.0500
v 29.1000 3.0000 -7.3500
v 30.9000 2.6000 -9.0500
v 30.9000 2.6000 -7.3500
v 30.9000 3.0000 -9.0500
v 30.9000 3.0000 -7.3500
f 1705 1706 1708 1707
f 1709 1711 1712 1710
f 1705 1709 1710 1706
f 1707 1708 1712 1711
f 1705 1707 1711 1709
f 1706 1710 1712 1708
usemtl c_955e2d
v 29.1000 3.0500 -9.2000
v 29.1000 3.0500 -8.9000
v 29.1000 4.8500 -9.2000
v 29.1000 4.8500 -8.9000
v 30.9000 3.0500 -9.2000
v 30.9000 3.0500 -8.9000
v 30.9000 4.8500 -9.2000
v 30.9000 4.8500 -8.9000
f 1713 1714 1716 1715
f 1717 1719 1720 1718
f 1713 1717 1718 1714
f 1715 1716 1720 1719
f 1713 1715 1719 1717
f 1714 1718 1720 1716
usemtl c_955e2d
v 31.1000 2.6000 -9.0500
v 31.1000 2.6000 -7.3500
v 31.1000 3.0000 -9.0500
v 31.1000 3.0000 -7.3500
v 32.9000 2.6000 -9.0500
v 32.9000 2.6000 -7.3500
v 32.9000 3.0000 -9.0500
v 32.9000 3.0000 -7.3500
f 1721 1722 1724 1723
f 1725 1727 1728 1726
f 1721 1725 1726 1722
f 1723 1724 1728 1727
f 1721 1723 1727 1725
f 1722 1726 1728 1724
usemtl c_955e2d
v 31.1000 3.0500 -9.2000
v 31.1000 3.0500 -8.9000
v 31.1000 4.8500 -9.2000
v 31.1000 4.8500 -8.9000
v 32.9000 3.0500 -9.2000
v 32.9000 3.0500 -8.9000
v 32.9000 4.8500 -9.2000
v 32.9000 4.8500 -8.9000
f 1729 1730 1732 1731
f 1733 1735 1736 1734
f 1729 1733 1734 1730
f 1731 1732 1736 1735
f 1729 1731 1735 1733
f 1730 1734 1736 1732
usemtl c_a5a7ab
v 26.8000 2.3000 -8.8000
v 26.8000 2.3000 -8.2000
v 26.8000 2.6000 -8.8000
v 26.8000 2.6000 -8.2000
v 33.2000 2.3000 -8.8000
v 33.2000 2.3000 -8.2000
v 33.2000 2.6000 -8.8000
v 33.2000 2.6000 -8.2000
f 1737 1738 1740 1739
f 1741 1743 1744 1742
f 1737 1741 1742 1738
f 1739 1740 1744 1743
f 1737 1739 1743 1741
f 1738 1742 1744 1740
usemtl c_a5a7ab
v 26.8500 1.0000 -9.0000
v 26.8500 1.0000 -7.8000
v 26.8500 2.3000 -9.0000
v 26.8500 2.3000 -7.8000
v 27.1500 1.0000 -9.0000
v 27.1500 1.0000 -7.8000
v 27.1500 2.3000 -9.0000
v 27.1500 2.3000 -7.8000
f 1745 1746 1748 1747
f 1749 1751 1752 1750
f 1745 1749 1750 1746
f 1747 1748 1752 1751
f 1745 1747 1751 1749
f 1746 1750 1752 1748
usemtl c_a5a7ab
v 32.8500 1.0000 -9.0000
v 32.8500 1.0000 -7.8000
v 32.8500 2.3000 -9.0000
v 32.8500 2.3000 -7.8000
v 33.1500 1.0000 -9.0000
v 33.1500 1.0000 -7.8000
v 33.1500 2.3000 -9.0000
v 33.1500 2.3000 -7.8000
f 1753 1754 1756 1755
f 1757 1759 1760 1758
f 1753 1757 1758 1754
f 1755 1756 1760 1759
f 1753 1755 1759 1757
f 1754 1758 1760 1756
usemtl c_955e2d
v 47.1000 2.6000 -9.0500
v 47.1000 2.6000 -7.3500
v 47.1000 3.0000 -9.0500
v 47.1000 3.0000 -7.3500
v 48.9000 2.6000 -9.0500
v 48.9000 2.6000 -7.3500
v 48.9000 3.0000 -9.0500
v 48.9000 3.0000 -7.3500
f 1761 1762 1764 1763
f 1765 1767 1768 1766
f 1761 1765 1766 1762
f 1763 1764 1768 1767
f 1761 1763 1767 1765
f 1762 1766 1768 1764
usemtl c_955e2d
v 47.1000 3.0500 -9.2000
v 47.1000 3.0500 -8.9000
v 47.1000 4.8500 -9.2000
v 47.1000 4.8500 -8.9000
v 48.9000 3.0500 -9.2000
v 48.9000 3.0500 -8.9000
v 48.9000 4.8500 -9.2000
v 48.9000 4.8500 -8.9000
f 1769 1770 1772 1771
f 1773 1775 1776 1774
f 1769 1773 1774 1770
f 1771 1772 1776 1775
f 1769 1771 1775 1773
f 1770 1774 1776 1772
usemtl c_955e2d
v 49.1000 2.6000 -9.0500
v 49.1000 2.6000 -7.3500
v 49.1000 3.0000 -9.0500
v 49.1000 3.0000 -7.3500
v 50.9000 2.6000 -9.0500
v 50.9000 2.6000 -7.3500
v 50.9000 3.0000 -9.0500
v 50.9000 3.0000 -7.3500
f 1777 1778 1780 1779
f 1781 1783 1784 1782
f 1777 1781 1782 1778
f 1779 1780 1784 1783
f 1777 1779 1783 1781
f 1778 1782 1784 1780
usemtl c_955e2d
v 49.1000 3.0500 -9.2000
v 49.1000 3.0500 -8.9000
v 49.1000 4.8500 -9.2000
v 49.1000 4.8500 -8.9000
v 50.9000 3.0500 -9.2000
v 50.9000 3.0500 -8.9000
v 50.9000 4.8500 -9.2000
v 50.9000 4.8500 -8.9000
f 1785 1786 1788 1787
f 1789 1791 1792 1790
f 1785 1789 1790 1786
f 1787 1788 1792 1791
f 1785 1787 1791 1789
f 1786 1790 1792 1788
usemtl c_955e2d
v 51.1000 2.6000 -9.0500
v 51.1000 2.6000 -7.3500
v 51.1000 3.0000 -9.0500
v 51.1000 3.0000 -7.3500
v 52.9000 2.6000 -9.0500
v 52.9000 2.6000 -7.3500
v 52.9000 3.0000 -9.0500
v 52.9000 3.0000 -7.3500
f 1793 1794 1796 1795
f 1797 1799 1800 1798
f 1793 1797 1798 1794
f 1795 1796 1800 1799
f 1793 1795 1799 1797
f 1794 1798 1800 1796
usemtl c_955e2d
v 51.1000 3.0500 -9.2000
v 51.1000 3.0500 -8.9000
v 51.1000 4.8500 -9.2000
v 51.1000 4.8500 -8.9000
v 52.9000 3.0500 -9.2000
v 52.9000 3.0500 -8.9000
v 52.9000 4.8500 -9.2000
v 52.9000 4.8500 -8.9000
f 1801 1802 1804 1803
f 1805 1807 1808 1806
f 1801 1805 1806 1802
f 1803 1804 1808 1807
f 1801 1803 1807 1805
f 1802 1806 1808 1804
usemtl c_a5a7ab
v 46.8000 2.3000 -8.8000
v 46.8000 2.3000 -8.2000
v 46.8000 2.6000 -8.8000
v 46.8000 2.6000 -8.2000
v 53.2000 2.3000 -8.8000
v 53.2000 2.3000 -8.2000
v 53.2000 2.6000 -8.8000
v 53.2000 2.6000 -8.2000
f 1809 1810 1812 1811
f 1813 1815 1816 1814
f 1809 1813 1814 1810
f 1811 1812 1816 1815
f 1809 1811 1815 1813
f 1810 1814 1816 1812
usemtl c_a5a7ab
v 46.8500 1.0000 -9.0000
v 46.8500 1.0000 -7.8000
v 46.8500 2.3000 -9.0000
v 46.8500 2.3000 -7.8000
v 47.1500 1.0000 -9.0000
v 47.1500 1.0000 -7.8000
v 47.1500 2.3000 -9.0000
v 47.1500 2.3000 -7.8000
f 1817 1818 1820 1819
f 1821 1823 1824 1822
f 1817 1821 1822 1818
f 1819 1820 1824 1823
f 1817 1819 1823 1821
f 1818 1822 1824 1820
usemtl c_a5a7ab
v 52.8500 1.0000 -9.0000
v 52.8500 1.0000 -7.8000
v 52.8500 2.3000 -9.0000
v 52.8500 2.3000 -7.8000
v 53.1500 1.0000 -9.0000
v 53.1500 1.0000 -7.8000
v 53.1500 2.3000 -9.0000
v 53.1500 2.3000 -7.8000
f 1825 1826 1828 1827
f 1829 1831 1832 1830
f 1825 1829 1830 1826
f 1827 1828 1832 1831
f 1825 1827 1831 1829
f 1826 1830 1832 1828
usemtl c_955e2d
v 67.1000 2.6000 -9.0500
v 67.1000 2.6000 -7.3500
v 67.1000 3.0000 -9.0500
v 67.1000 3.0000 -7.3500
v 68.9000 2.6000 -9.0500
v 68.9000 2.6000 -7.3500
v 68.9000 3.0000 -9.0500
v 68.9000 3.0000 -7.3500
f 1833 1834 1836 1835
f 1837 1839 1840 1838
f 1833 1837 1838 1834
f 1835 1836 1840 1839
f 1833 1835 1839 1837
f 1834 1838 1840 1836
usemtl c_955e2d
v 67.1000 3.0500 -9.2000
v 67.1000 3.0500 -8.9000
v 67.1000 4.8500 -9.2000
v 67.1000 4.8500 -8.9000
v 68.9000 3.0500 -9.2000
v 68.9000 3.0500 -8.9000
v 68.9000 4.8500 -9.2000
v 68.9000 4.8500 -8.9000
f 1841 1842 1844 1843
f 1845 1847 1848 1846
f 1841 1845 1846 1842
f 1843 1844 1848 1847
f 1841 1843 1847 1845
f 1842 1846 1848 1844
usemtl c_955e2d
v 69.1000 2.6000 -9.0500
v 69.1000 2.6000 -7.3500
v 69.1000 3.0000 -9.0500
v 69.1000 3.0000 -7.3500
v 70.9000 2.6000 -9.0500
v 70.9000 2.6000 -7.3500
v 70.9000 3.0000 -9.0500
v 70.9000 3.0000 -7.3500
f 1849 1850 1852 1851
f 1853 1855 1856 1854
f 1849 1853 1854 1850
f 1851 1852 1856 1855
f 1849 1851 1855 1853
f 1850 1854 1856 1852
usemtl c_955e2d
v 69.1000 3.0500 -9.2000
v 69.1000 3.0500 -8.9000
v 69.1000 4.8500 -9.2000
v 69.1000 4.8500 -8.9000
v 70.9000 3.0500 -9.2000
v 70.9000 3.0500 -8.9000
v 70.9000 4.8500 -9.2000
v 70.9000 4.8500 -8.9000
f 1857 1858 1860 1859
f 1861 1863 1864 1862
f 1857 1861 1862 1858
f 1859 1860 1864 1863
f 1857 1859 1863 1861
f 1858 1862 1864 1860
usemtl c_955e2d
v 71.1000 2.6000 -9.0500
v 71.1000 2.6000 -7.3500
v 71.1000 3.0000 -9.0500
v 71.1000 3.0000 -7.3500
v 72.9000 2.6000 -9.0500
v 72.9000 2.6000 -7.3500
v 72.9000 3.0000 -9.0500
v 72.9000 3.0000 -7.3500
f 1865 1866 1868 1867
f 1869 1871 1872 1870
f 1865 1869 1870 1866
f 1867 1868 1872 1871
f 1865 1867 1871 1869
f 1866 1870 1872 1868
usemtl c_955e2d
v 71.1000 3.0500 -9.2000
v 71.1000 3.0500 -8.9000
v 71.1000 4.8500 -9.2000
v 71.1000 4.8500 -8.9000
v 72.9000 3.0500 -9.2000
v 72.9000 3.0500 -8.9000
v 72.9000 4.8500 -9.2000
v 72.9000 4.8500 -8.9000
f 1873 1874 1876 1875
f 1877 1879 1880 1878
f 1873 1877 1878 1874
f 1875 1876 1880 1879
f 1873 1875 1879 1877
f 1874 1878 1880 1876
usemtl c_a5a7ab
v 66.8000 2.3000 -8.8000
v 66.8000 2.3000 -8.2000
v 66.8000 2.6000 -8.8000
v 66.8000 2.6000 -8.2000
v 73.2000 2.3000 -8.8000
v 73.2000 2.3000 -8.2000
v 73.2000 2.6000 -8.8000
v 73.2000 2.6000 -8.2000
f 1881 1882 1884 1883
f 1885 1887 1888 1886
f 1881 1885 1886 1882
f 1883 1884 1888 1887
f 1881 1883 1887 1885
f 1882 1886 1888 1884
usemtl c_a5a7ab
v 66.8500 1.0000 -9.0000
v 66.8500 1.0000 -7.8000
v 66.8500 2.3000 -9.0000
v 66.8500 2.3000 -7.8000
v 67.1500 1.0000 -9.0000
v 67.1500 1.0000 -7.8000
v 67.1500 2.3000 -9.0000
v 67.1500 2.3000 -7.8000
f 1889 1890 1892 1891
f 1893 1895 1896 1894
f 1889 1893 1894 1890
f 1891 1892 1896 1895
f 1889 1891 1895 1893
f 1890 1894 1896 1892
usemtl c_a5a7ab
v 72.8500 1.0000 -9.0000
v 72.8500 1.0000 -7.8000
v 72.8500 2.3000 -9.0000
v 72.8500 2.3000 -7.8000
v 73.1500 1.0000 -9.0000
v 73.1500 1.0000 -7.8000
v 73.1500 2.3000 -9.0000
v 73.1500 2.3000 -7.8000
f 1897 1898 1900 1899
f 1901 1903 1904 1902
f 1897 1901 1902 1898
f 1899 1900 1904 1903
f 1897 1899 1903 1901
f 1898 1902 1904 1900
usemtl c_132d5e
v -8.0000 9.5000 -10.0000
v -8.0000 9.5000 -9.7000
v -8.0000 12.5000 -10.0000
v -8.0000 12.5000 -9.7000
v 8.0000 9.5000 -10.0000
v 8.0000 9.5000 -9.7000
v 8.0000 12.5000 -10.0000
v 8.0000 12.5000 -9.7000
f 1905 1906 1908 1907
f 1909 1911 1912 1910
f 1905 1909 1910 1906
f 1907 1908 1912 1911
f 1905 1907 1911 1909
f 1906 1910 1912 1908
usemtl c_ebb913
v 8.5000 9.5000 -10.0000
v 8.5000 9.5000 -9.7000
v 8.5000 12.5000 -10.0000
v 8.5000 12.5000 -9.7000
v 11.5000 9.5000 -10.0000
v 11.5000 9.5000 -9.7000
v 11.5000 12.5000 -10.0000
v 11.5000 12.5000 -9.7000
f 1913 1914 1916 1915
f 1917 1919 1920 1918
f 1913 1917 1918 1914
f 1915 1916 1920 1919
f 1913 1915 1919 1917
f 1914 1918 1920 1916
usemtl c_121213
v -11.7000 10.3000 -10.0000
v -11.7000 10.3000 -9.7000
v -11.7000 11.7000 -10.0000
v -11.7000 11.7000 -9.7000
v -8.3000 10.3000 -10.0000
v -8.3000 10.3000 -9.7000
v -8.3000 11.7000 -10.0000
v -8.3000 11.7000 -9.7000
f 1921 1922 1924 1923
f 1925 1927 1928 1926
f 1921 1925 1926 1922
f 1923 1924 1928 1927
f 1921 1923 1927 1925
f 1922 1926 1928 1924
usemtl c_121213
v -3.5000 12.2000 6.8500
v -3.5000 12.2000 7.1500
v -3.5000 14.8000 6.8500
v -3.5000 14.8000 7.1500
v 3.5000 12.2000 6.8500
v 3.5000 12.2000 7.1500
v 3.5000 14.8000 6.8500
v 3.5000 14.8000 7.1500
f 1929 1930 1932 1931
f 1933 1935 1936 1934
f 1929 1933 1934 1930
f 1931 1932 1936 1935
f 1929 1931 1935 1933
f 1930 1934 1936 1932
usemtl c_121213
v -0.1000 14.3000 6.9000
v -0.1000 14.3000 7.1000
v -0.1000 16.0000 6.9000
v -0.1000 16.0000 7.1000
v 0.1000 14.3000 6.9000
v 0.1000 14.3000 7.1000
v 0.1000 16.0000 6.9000
v 0.1000 16.0000 7.1000
f 1937 1938 1940 1939
f 1941 1943 1944 1942
f 1937 1941 1942 1938
f 1939 1940 1944 1943
f 1937 1939 1943 1941
f 1938 1942 1944 1940
usemtl c_a5a7ab
v -82.8000 3.7000 -10.0250
v -82.8000 3.7000 -9.8750
v -82.8000 11.3000 -10.0250
v -82.8000 11.3000 -9.8750
v -77.2000 3.7000 -10.0250
v -77.2000 3.7000 -9.8750
v -77.2000 11.3000 -10.0250
v -77.2000 11.3000 -9.8750
f 1945 1946 1948 1947
f 1949 1951 1952 1950
f 1945 1949 1950 1946
f 1947 1948 1952 1951
f 1945 1947 1951 1949
f 1946 1950 1952 1948
usemtl c_aa5418
v -82.5000 4.0000 -10.0000
v -82.5000 4.0000 -9.8000
v -82.5000 11.0000 -10.0000
v -82.5000 11.0000 -9.8000
v -77.5000 4.0000 -10.0000
v -77.5000 4.0000 -9.8000
v -77.5000 11.0000 -10.0000
v -77.5000 11.0000 -9.8000
f 1953 1954 1956 1955
f 1957 1959 1960 1958
f 1953 1957 1958 1954
f 1955 1956 1960 1959
f 1953 1955 1959 1957
f 1954 1958 1960 1956
usemtl c_a5a7ab
v -42.8000 3.7000 -10.0250
v -42.8000 3.7000 -9.8750
v -42.8000 11.3000 -10.0250
v -42.8000 11.3000 -9.8750
v -37.2000 3.7000 -10.0250
v -37.2000 3.7000 -9.8750
v -37.2000 11.3000 -10.0250
v -37.2000 11.3000 -9.8750
f 1961 1962 1964 1963
f 1965 1967 1968 1966
f 1961 1965 1966 1962
f 1963 1964 1968 1967
f 1961 1963 1967 1965
f 1962 1966 1968 1964
usemtl c_1d407d
v -42.5000 4.0000 -10.0000
v -42.5000 4.0000 -9.8000
v -42.5000 11.0000 -10.0000
v -42.5000 11.0000 -9.8000
v -37.5000 4.0000 -10.0000
v -37.5000 4.0000 -9.8000
v -37.5000 11.0000 -10.0000
v -37.5000 11.0000 -9.8000
f 1969 1970 1972 1971
f 1973 1975 1976 1974
f 1969 1973 1974 1970
f 1971 1972 1976 1975
f 1969 1971 1975 1973
f 1970 1974 1976 1972
usemtl c_a5a7ab
v -22.8000 3.7000 -10.0250
v -22.8000 3.7000 -9.8750
v -22.8000 11.3000 -10.0250
v -22.8000 11.3000 -9.8750
v -17.2000 3.7000 -10.0250
v -17.2000 3.7000 -9.8750
v -17.2000 11.3000 -10.0250
v -17.2000 11.3000 -9.8750
f 1977 1978 1980 1979
f 1981 1983 1984 1982
f 1977 1981 1982 1978
f 1979 1980 1984 1983
f 1977 1979 1983 1981
f 1978 1982 1984 1980
usemtl c_1d6940
v -22.5000 4.0000 -10.0000
v -22.5000 4.0000 -9.8000
v -22.5000 11.0000 -10.0000
v -22.5000 11.0000 -9.8000
v -17.5000 4.0000 -10.0000
v -17.5000 4.0000 -9.8000
v -17.5000 11.0000 -10.0000
v -17.5000 11.0000 -9.8000
f 1985 1986 1988 1987
f 1989 1991 1992 1990
f 1985 1989 1990 1986
f 1987 1988 1992 1991
f 1985 1987 1991 1989
f 1986 1990 1992 1988
usemtl c_a5a7ab
v 17.2000 3.7000 -10.0250
v 17.2000 3.7000 -9.8750
v 17.2000 11.3000 -10.0250
v 17.2000 11.3000 -9.8750
v 22.8000 3.7000 -10.0250
v 22.8000 3.7000 -9.8750
v 22.8000 11.3000 -10.0250
v 22.8000 11.3000 -9.8750
f 1993 1994 1996 1995
f 1997 1999 2000 1998
f 1993 1997 1998 1994
f 1995 1996 2000 1999
f 1993 1995 1999 1997
f 1994 1998 2000 1996
usemtl c_542d73
v 17.5000 4.0000 -10.0000
v 17.5000 4.0000 -9.8000
v 17.5000 11.0000 -10.0000
v 17.5000 11.0000 -9.8000
v 22.5000 4.0000 -10.0000
v 22.5000 4.0000 -9.8000
v 22.5000 11.0000 -10.0000
v 22.5000 11.0000 -9.8000
f 2001 2002 2004 2003
f 2005 2007 2008 2006
f 2001 2005 2006 2002
f 2003 2004 2008 2007
f 2001 2003 2007 2005
f 2002 2006 2008 2004
usemtl c_a5a7ab
v 37.2000 3.7000 -10.0250
v 37.2000 3.7000 -9.8750
v 37.2000 11.3000 -10.0250
v 37.2000 11.3000 -9.8750
v 42.8000 3.7000 -10.0250
v 42.8000 3.7000 -9.8750
v 42.8000 11.3000 -10.0250
v 42.8000 11.3000 -9.8750
f 2009 2010 2012 2011
f 2013 2015 2016 2014
f 2009 2013 2014 2010
f 2011 2012 2016 2015
f 2009 2011 2015 2013
f 2010 2014 2016 2012
usemtl c_957813
v 37.5000 4.0000 -10.0000
v 37.5000 4.0000 -9.8000
v 37.5000 11.0000 -10.0000
v 37.5000 11.0000 -9.8000
v 42.5000 4.0000 -10.0000
v 42.5000 4.0000 -9.8000
v 42.5000 11.0000 -10.0000
v 42.5000 11.0000 -9.8000
f 2017 2018 2020 2019
f 2021 2023 2024 2022
f 2017 2021 2022 2018
f 2019 2020 2024 2023
f 2017 2019 2023 2021
f 2018 2022 2024 2020
usemtl c_a5a7ab
v 57.2000 3.7000 -10.0250
v 57.2000 3.7000 -9.8750
v 57.2000 11.3000 -10.0250
v 57.2000 11.3000 -9.8750
v 62.8000 3.7000 -10.0250
v 62.8000 3.7000 -9.8750
v 62.8000 11.3000 -10.0250
v 62.8000 11.3000 -9.8750
f 2025 2026 2028 2027
f 2029 2031 2032 2030
f 2025 2029 2030 2026
f 2027 2028 2032 2031
f 2025 2027 2031 2029
f 2026 2030 2032 2028
usemtl c_18646e
v 57.5000 4.0000 -10.0000
v 57.5000 4.0000 -9.8000
v 57.5000 11.0000 -10.0000
v 57.5000 11.0000 -9.8000
v 62.5000 4.0000 -10.0000
v 62.5000 4.0000 -9.8000
v 62.5000 11.0000 -10.0000
v 62.5000 11.0000 -9.8000
f 2033 2034 2036 2035
f 2037 2039 2040 2038
f 2033 2037 2038 2034
f 2035 2036 2040 2039
f 2033 2035 2039 2037
f 2034 2038 2040 2036
usemtl c_a5a7ab
v 77.2000 3.7000 -10.0250
v 77.2000 3.7000 -9.8750
v 77.2000 11.3000 -10.0250
v 77.2000 11.3000 -9.8750
v 82.8000 3.7000 -10.0250
v 82.8000 3.7000 -9.8750
v 82.8000 11.3000 -10.0250
v 82.8000 11.3000 -9.8750
f 2041 2042 2044 2043
f 2045 2047 2048 2046
f 2041 2045 2046 2042
f 2043 2044 2048 2047
f 2041 2043 2047 2045
f 2042 2046 2048 2044
usemtl c_781d1d
v 77.5000 4.0000 -10.0000
v 77.5000 4.0000 -9.8000
v 77.5000 11.0000 -10.0000
v 77.5000 11.0000 -9.8000
v 82.5000 4.0000 -10.0000
v 82.5000 4.0000 -9.8000
v 82.5000 11.0000 -10.0000
v 82.5000 11.0000 -9.8000
f 2049 2050 2052 2051
f 2053 2055 2056 2054
f 2049 2053 2054 2050
f 2051 2052 2056 2055
f 2049 2051 2055 2053
f 2050 2054 2056 2052
usemtl c_b41d23
v -62.0000 1.0000 -9.8500
v -62.0000 1.0000 -7.3500
v -62.0000 8.0000 -9.8500
v -62.0000 8.0000 -7.3500
v -58.0000 1.0000 -9.8500
v -58.0000 1.0000 -7.3500
v -58.0000 8.0000 -9.8500
v -58.0000 8.0000 -7.3500
f 2057 2058 2060 2059
f 2061 2063 2064 2062
f 2057 2061 2062 2058
f 2059 2060 2064 2063
f 2057 2059 2063 2061
f 2058 2062 2064 2060
usemtl c_c7dbff
v -61.5000 3.2000 -7.3500
v -61.5000 3.2000 -7.2500
v -61.5000 7.2000 -7.3500
v -61.5000 7.2000 -7.2500
v -58.5000 3.2000 -7.3500
v -58.5000 3.2000 -7.2500
v -58.5000 7.2000 -7.3500
v -58.5000 7.2000 -7.2500
f 2065 2066 2068 2067
f 2069 2071 2072 2070
f 2065 2069 2070 2066
f 2067 2068 2072 2071
f 2065 2067 2071 2069
f 2066 2070 2072 2068
usemtl c_284581
v -44.8000 1.0000 -9.0000
v -44.6928 1.0000 -8.6000
v -44.4000 1.0000 -8.3072
v -44.0000 1.0000 -8.2000
v -43.6000 1.0000 -8.3072
v -43.3072 1.0000 -8.6000
v -43.2000 1.0000 -9.0000
v -43.3072 1.0000 -9.4000
v -43.6000 1.0000 -9.6928
v -44.0000 1.0000 -9.8000
v -44.4000 1.0000 -9.6928
v -44.6928 1.0000 -9.4000
v -44.8000 3.4000 -9.0000
v -44.6928 3.4000 -8.6000
v -44.4000 3.4000 -8.3072
v -44.0000 3.4000 -8.2000
v -43.6000 3.4000 -8.3072
v -43.3072 3.4000 -8.6000
v -43.2000 3.4000 -9.0000
v -43.3072 3.4000 -9.4000
v -43.6000 3.4000 -9.6928
v -44.0000 3.4000 -9.8000
v -44.4000 3.4000 -9.6928
v -44.6928 3.4000 -9.4000
f 2084 2083 2082 2081 2080 2079 2078 2077 2076 2075 2074 2073
f 2085 2086 2087 2088 2089 2090 2091 2092 2093 2094 2095 2096
f 2073 2074 2086 2085
f 2074 2075 2087 2086
f 2075 2076 2088 2087
f 2076 2077 2089 2088
f 2077 2078 2090 2089
f 2078 2079 2091 2090
f 2079 2080 2092 2091
f 2080 2081 2093 2092
f 2081 2082 2094 2093
f 2082 2083 2095 2094
f 2083 2084 2096 2095
f 2084 2073 2085 2096
usemtl c_284581
v 43.2000 1.0000 -9.0000
v 43.3072 1.0000 -8.6000
v 43.6000 1.0000 -8.3072
v 44.0000 1.0000 -8.2000
v 44.4000 1.0000 -8.3072
v 44.6928 1.0000 -8.6000
v 44.8000 1.0000 -9.0000
v 44.6928 1.0000 -9.4000
v 44.4000 1.0000 -9.6928
v 44.0000 1.0000 -9.8000
v 43.6000 1.0000 -9.6928
v 43.3072 1.0000 -9.4000
v 43.2000 3.4000 -9.0000
v 43.3072 3.4000 -8.6000
v 43.6000 3.4000 -8.3072
v 44.0000 3.4000 -8.2000
v 44.4000 3.4000 -8.3072
v 44.6928 3.4000 -8.6000
v 44.8000 3.4000 -9.0000
v 44.6928 3.4000 -9.4000
v 44.4000 3.4000 -9.6928
v 44.0000 3.4000 -9.8000
v 43.6000 3.4000 -9.6928
v 43.3072 3.4000 -9.4000
f 2108 2107 2106 2105 2104 2103 2102 2101 2100 2099 2098 2097
f 2109 2110 2111 2112 2113 2114 2115 2116 2117 2118 2119 2120
f 2097 2098 2110 2109
f 2098 2099 2111 2110
f 2099 2100 2112 2111
f 2100 2101 2113 2112
f 2101 2102 2114 2113
f 2102 2103 2115 2114
f 2103 2104 2116 2115
f 2104 2105 2117 2116
f 2105 2106 2118 2117
f 2106 2107 2119 2118
f 2107 2108 2120 2119
f 2108 2097 2109 2120
usemtl c_e1ded1
v -12.8000 3.0050 -8.8500
v -12.8000 3.0050 -7.5500
v -12.8000 3.0550 -8.8500
v -12.8000 3.0550 -7.5500
v -11.2000 3.0050 -8.8500
v -11.2000 3.0050 -7.5500
v -11.2000 3.0550 -8.8500
v -11.2000 3.0550 -7.5500
f 2121 2122 2124 2123
f 2125 2127 2128 2126
f 2121 2125 2126 2122
f 2123 2124 2128 2127
f 2121 2123 2127 2125
f 2122 2126 2128 2124
usemtl c_2d5e2d
v 1.8672 1.0400 2.0277
v 1.3200 1.0400 3.5312
v 1.8672 1.1600 2.0277
v 1.3200 1.1600 3.5312
v 1.9800 1.0400 2.0688
v 1.4328 1.0400 3.5723
v 1.9800 1.1600 2.0688
v 1.4328 1.1600 3.5723
f 2129 2130 2132 2131
f 2133 2135 2136 2134
f 2129 2133 2134 2130
f 2131 2132 2136 2135
f 2129 2131 2135 2133
f 2130 2134 2136 2132
usemtl c_b41823
v 1.9407 1.4250 2.0013
v 2.0464 1.3949 2.0398
v 2.0036 1.3949 2.0946
v 1.9368 1.3949 2.1137
v 1.8714 1.3949 2.0900
v 1.8326 1.3949 2.0323
v 1.8350 1.3949 1.9628
v 1.8778 1.3949 1.9080
v 1.9446 1.3949 1.8889
v 2.0100 1.3949 1.9126
v 2.0488 1.3949 1.9703
v 2.1238 1.3125 2.0679
v 2.0497 1.3125 2.1628
v 1.9339 1.3125 2.1960
v 1.8207 1.3125 2.1548
v 1.7534 1.3125 2.0550
v 1.7576 1.3125 1.9347
v 1.8317 1.3125 1.8398
v 1.9475 1.3125 1.8066
v 2.0607 1.3125 1.8478
v 2.1280 1.3125 1.9476
v 2.1521 1.2000 2.0783
v 2.0665 1.2000 2.1878
v 1.9328 1.2000 2.2262
v 1.8022 1.2000 2.1786
v 1.7244 1.2000 2.0633
v 1.7293 1.2000 1.9243
v 1.8149 1.2000 1.8148
v 1.9486 1.2000 1.7764
v 2.0792 1.2000 1.8240
v 2.1570 1.2000 1.9393
v 2.1238 1.0875 2.0679
v 2.0497 1.0875 2.1628
v 1.9339 1.0875 2.1960
v 1.8207 1.0875 2.1548
v 1.7534 1.0875 2.0550
v 1.7576 1.0875 1.9347
v 1.8317 1.0875 1.8398
v 1.9475 1.0875 1.8066
v 2.0607 1.0875 1.8478
v 2.1280 1.0875 1.9476
v 2.0464 1.0051 2.0398
v 2.0036 1.0051 2.0946
v 1.9368 1.0051 2.1137
v 1.8714 1.0051 2.0900
v 1.8326 1.0051 2.0323
v 1.8350 1.0051 1.9628
v 1.8778 1.0051 1.9080
v 1.9446 1.0051 1.8889
v 2.0100 1.0051 1.9126
v 2.0488 1.0051 1.9703
v 1.9407 0.9750 2.0013
f 2137 2139 2138
f 2137 2140 2139
f 2137 2141 2140
f 2137 2142 2141
f 2137 2143 2142
f 2137 2144 2143
f 2137 2145 2144
f 2137 2146 2145
f 2137 2147 2146
f 2137 2138 2147
f 2138 2139 2149 2148
f 2139 2140 2150 2149
f 2140 2141 2151 2150
f 2141 2142 2152 2151
f 2142 2143 2153 2152
f 2143 2144 2154 2153
f 2144 2145 2155 2154
f 2145 2146 2156 2155
f 2146 2147 2157 2156
f 2147 2138 2148 2157
f 2148 2149 2159 2158
f 2149 2150 2160 2159
f 2150 2151 2161 2160
f 2151 2152 2162 2161
f 2152 2153 2163 2162
f 2153 2154 2164 2163
f 2154 2155 2165 2164
f 2155 2156 2166 2165
f 2156 2157 2167 2166
f 2157 2148 2158 2167
f 2158 2159 2169 2168
f 2159 2160 2170 2169
f 2160 2161 2171 2170
f 2161 2162 2172 2171
f 2162 2163 2173 2172
f 2163 2164 2174 2173
f 2164 2165 2175 2174
f 2165 2166 2176 2175
f 2166 2167 2177 2176
f 2167 2158 2168 2177
f 2168 2169 2179 2178
f 2169 2170 2180 2179
f 2170 2171 2181 2180
f 2171 2172 2182 2181
f 2172 2173 2183 2182
f 2173 2174 2184 2183
f 2174 2175 2185 2184
f 2175 2176 2186 2185
f 2176 2177 2187 2186
f 2177 2168 2178 2187
f 2188 2178 2179
f 2188 2179 2180
f 2188 2180 2181
f 2188 2181 2182
f 2188 2182 2183
f 2188 2183 2184
f 2188 2184 2185
f 2188 2185 2186
f 2188 2186 2187
f 2188 2187 2178
usemtl c_2d5e2d
v 1.9400 1.0400 2.0000
v 1.9400 1.0400 3.6000
v 1.9400 1.1600 2.0000
v 1.9400 1.1600 3.6000
v 2.0600 1.0400 2.0000
v 2.0600 1.0400 3.6000
v 2.0600 1.1600 2.0000
v 2.0600 1.1600 3.6000
f 2189 2190 2192 2191
f 2193 2195 2196 2194
f 2189 2193 2194 2190
f 2191 2192 2196 2195
f 2189 2191 2195 2193
f 2190 2194 2196 2192
usemtl c_ebebe6
v 2.0000 1.4250 1.9500
v 2.1125 1.3949 1.9500
v 2.0910 1.3949 2.0161
v 2.0348 1.3949 2.0570
v 1.9652 1.3949 2.0570
v 1.9090 1.3949 2.0161
v 1.8875 1.3949 1.9500
v 1.9090 1.3949 1.8839
v 1.9652 1.3949 1.8430
v 2.0348 1.3949 1.8430
v 2.0910 1.3949 1.8839
v 2.1949 1.3125 1.9500
v 2.1576 1.3125 2.0645
v 2.0602 1.3125 2.1353
v 1.9398 1.3125 2.1353
v 1.8424 1.3125 2.0645
v 1.8051 1.3125 1.9500
v 1.8424 1.3125 1.8355
v 1.9398 1.3125 1.7647
v 2.0602 1.3125 1.7647
v 2.1576 1.3125 1.8355
v 2.2250 1.2000 1.9500
v 2.1820 1.2000 2.0823
v 2.0695 1.2000 2.1640
v 1.9305 1.2000 2.1640
v 1.8180 1.2000 2.0823
v 1.7750 1.2000 1.9500
v 1.8180 1.2000 1.8177
v 1.9305 1.2000 1.7360
v 2.0695 1.2000 1.7360
v 2.1820 1.2000 1.8177
v 2.1949 1.0875 1.9500
v 2.1576 1.0875 2.0645
v 2.0602 1.0875 2.1353
v 1.9398 1.0875 2.1353
v 1.8424 1.0875 2.0645
v 1.8051 1.0875 1.9500
v 1.8424 1.0875 1.8355
v 1.9398 1.0875 1.7647
v 2.0602 1.0875 1.7647
v 2.1576 1.0875 1.8355
v 2.1125 1.0051 1.9500
v 2.0910 1.0051 2.0161
v 2.0348 1.0051 2.0570
v 1.9652 1.0051 2.0570
v 1.9090 1.0051 2.0161
v 1.8875 1.0051 1.9500
v 1.9090 1.0051 1.8839
v 1.9652 1.0051 1.8430
v 2.0348 1.0051 1.8430
v 2.0910 1.0051 1.8839
v 2.0000 0.9750 1.9500
f 2197 2199 2198
f 2197 2200 2199
f 2197 2201 2200
f 2197 2202 2201
f 2197 2203 2202
f 2197 2204 2203
f 2197 2205 2204
f 2197 2206 2205
f 2197 2207 2206
f 2197 2198 2207
f 2198 2199 2209 2208
f 2199 2200 2210 2209
f 2200 2201 2211 2210
f 2201 2202 2212 2211
f 2202 2203 2213 2212
f 2203 2204 2214 2213
f 2204 2205 2215 2214
f 2205 2206 2216 2215
f 2206 2207 2217 2216
f 2207 2198 2208 2217
f 2208 2209 2219 2218
f 2209 2210 2220 2219
f 2210 2211 2221 2220
f 2211 2212 2222 2221
f 2212 2213 2223 2222
f 2213 2214 2224 2223
f 2214 2215 2225 2224
f 2215 2216 2226 2225
f 2216 2217 2227 2226
f 2217 2208 2218 2227
f 2218 2219 2229 2228
f 2219 2220 2230 2229
f 2220 2221 2231 2230
f 2221 2222 2232 2231
f 2222 2223 2233 2232
f 2223 2224 2234 2233
f 2224 2225 2235 2234
f 2225 2226 2236 2235
f 2226 2227 2237 2236
f 2227 2218 2228 2237
f 2228 2229 2239 2238
f 2229 2230 2240 2239
f 2230 2231 2241 2240
f 2231 2232 2242 2241
f 2232 2233 2243 2242
f 2233 2234 2244 2243
f 2234 2235 2245 2244
f 2235 2236 2246 2245
f 2236 2237 2247 2246
f 2237 2228 2238 2247
f 2248 2238 2239
f 2248 2239 2240
f 2248 2240 2241
f 2248 2241 2242
f 2248 2242 2243
f 2248 2243 2244
f 2248 2244 2245
f 2248 2245 2246
f 2248 2246 2247
f 2248 2247 2238
usemtl c_2d5e2d
v 2.0200 1.0400 2.0688
v 2.5672 1.0400 3.5723
v 2.0200 1.1600 2.0688
v 2.5672 1.1600 3.5723
v 2.1328 1.0400 2.0277
v 2.6800 1.0400 3.5312
v 2.1328 1.1600 2.0277
v 2.6800 1.1600 3.5312
f 2249 2250 2252 2251
f 2253 2255 2256 2254
f 2249 2253 2254 2250
f 2251 2252 2256 2255
f 2249 2251 2255 2253
f 2250 2254 2256 2252
usemtl c_b41823
v 2.0593 1.4250 2.0013
v 2.1650 1.3949 1.9628
v 2.1674 1.3949 2.0323
v 2.1286 1.3949 2.0900
v 2.0632 1.3949 2.1137
v 1.9964 1.3949 2.0946
v 1.9536 1.3949 2.0398
v 1.9512 1.3949 1.9703
v 1.9900 1.3949 1.9126
v 2.0554 1.3949 1.8889
v 2.1222 1.3949 1.9080
v 2.2424 1.3125 1.9347
v 2.2466 1.3125 2.0550
v 2.1793 1.3125 2.1548
v 2.0661 1.3125 2.1960
v 1.9503 1.3125 2.1628
v 1.8762 1.3125 2.0679
v 1.8720 1.3125 1.9476
v 1.9393 1.3125 1.8478
v 2.0525 1.3125 1.8066
v 2.1683 1.3125 1.8398
v 2.2707 1.2000 1.9243
v 2.2756 1.2000 2.0633
v 2.1978 1.2000 2.1786
v 2.0672 1.2000 2.2262
v 1.9335 1.2000 2.1878
v 1.8479 1.2000 2.0783
v 1.8430 1.2000 1.9393
v 1.9208 1.2000 1.8240
v 2.0514 1.2000 1.7764
v 2.1851 1.2000 1.8148
v 2.2424 1.0875 1.9347
v 2.2466 1.0875 2.0550
v 2.1793 1.0875 2.1548
v 2.0661 1.0875 2.1960
v 1.9503 1.0875 2.1628
v 1.8762 1.0875 2.0679
v 1.8720 1.0875 1.9476
v 1.9393 1.0875 1.8478
v 2.0525 1.0875 1.8066
v 2.1683 1.0875 1.8398
v 2.1650 1.0051 1.9628
v 2.1674 1.0051 2.0323
v 2.1286 1.0051 2.0900
v 2.0632 1.0051 2.1137
v 1.9964 1.0051 2.0946
v 1.9536 1.0051 2.0398
v 1.9512 1.0051 1.9703
v 1.9900 1.0051 1.9126
v 2.0554 1.0051 1.8889
v 2.1222 1.0051 1.9080
v 2.0593 0.9750 2.0013
f 2257 2259 2258
f 2257 2260 2259
f 2257 2261 2260
f 2257 2262 2261
f 2257 2263 2262
f 2257 2264 2263
f 2257 2265 2264
f 2257 2266 2265
f 2257 2267 2266
f 2257 2258 2267
f 2258 2259 2269 2268
f 2259 2260 2270 2269
f 2260 2261 2271 2270
f 2261 2262 2272 2271
f 2262 2263 2273 2272
f 2263 2264 2274 2273
f 2264 2265 2275 2274
f 2265 2266 2276 2275
f 2266 2267 2277 2276
f 2267 2258 2268 2277
f 2268 2269 2279 2278
f 2269 2270 2280 2279
f 2270 2271 2281 2280
f 2271 2272 2282 2281
f 2272 2273 2283 2282
f 2273 2274 2284 2283
f 2274 2275 2285 2284
f 2275 2276 2286 2285
f 2276 2277 2287 2286
f 2277 2268 2278 2287
f 2278 2279 2289 2288
f 2279 2280 2290 2289
f 2280 2281 2291 2290
f 2281 2282 2292 2291
f 2282 2283 2293 2292
f 2283 2284 2294 2293
f 2284 2285 2295 2294
f 2285 2286 2296 2295
f 2286 2287 2297 2296
f 2287 2278 2288 2297
f 2288 2289 2299 2298
f 2289 2290 2300 2299
f 2290 2291 2301 2300
f 2291 2292 2302 2301
f 2292 2293 2303 2302
f 2293 2294 2304 2303
f 2294 2295 2305 2304
f 2295 2296 2306 2305
f 2296 2297 2307 2306
f 2297 2288 2298 2307
f 2308 2298 2299
f 2308 2299 2300
f 2308 2300 2301
f 2308 2301 2302
f 2308 2302 2303
f 2308 2303 2304
f 2308 2304 2305
f 2308 2305 2306
f 2308 2306 2307
f 2308 2307 2298
usemtl c_121213
v 33.4292 1.0000 3.6041
v 33.9364 1.0000 4.6917
v 33.4292 1.0600 3.6041
v 33.9364 1.0600 4.6917
v 34.0636 1.0000 3.3083
v 34.5708 1.0000 4.3959
v 34.0636 1.0600 3.3083
v 34.5708 1.0600 4.3959
f 2309 2310 2312 2311
f 2313 2315 2316 2314
f 2309 2313 2314 2310
f 2311 2312 2316 2315
f 2309 2311 2315 2313
f 2310 2314 2316 2312
